<svg xmlns="http://www.w3.org/2000/svg" xmlns:xlink="http://www.w3.org/1999/xlink" width="160" zoomAndPan="magnify" viewBox="0 0 120 41.25" height="55" preserveAspectRatio="xMidYMid meet" version="1.0"><metadata><ContainsAiGeneratedContent>Yes</ContainsAiGeneratedContent></metadata><defs><clipPath id="90f5cd55ab"><path d="M 1.070312 0 L 118.925781 0 L 118.925781 40.511719 L 1.070312 40.511719 Z M 1.070312 0 " clip-rule="nonzero"/></clipPath><clipPath id="ac63d84191"><path d="M 91 16 L 100.648438 16 L 100.648438 25 L 91 25 Z M 91 16 " clip-rule="nonzero"/></clipPath><clipPath id="3a60d4000f"><path d="M 19.621094 11.152344 L 100.648438 11.152344 L 100.648438 29.570312 L 19.621094 29.570312 Z M 19.621094 11.152344 " clip-rule="nonzero"/></clipPath></defs><g clip-path="url(#90f5cd55ab)"><path fill="#ffffff" d="M 1.070312 0 L 118.929688 0 L 118.929688 40.511719 L 1.070312 40.511719 Z M 1.070312 0 " fill-opacity="1" fill-rule="nonzero"/><path fill="#ffffff" d="M 1.070312 0 L 118.929688 0 L 118.929688 40.511719 L 1.070312 40.511719 Z M 1.070312 0 " fill-opacity="1" fill-rule="nonzero"/></g><g clip-path="url(#ac63d84191)"><path fill="#12abdb" d="M 97.484375 22.15625 C 99.261719 22.15625 100.632812 20.695312 100.648438 18.964844 C 100.523438 18.207031 100.261719 16.808594 98.320312 16.808594 C 96.191406 16.808594 95.484375 19.808594 93.753906 21.742188 C 93.613281 22.839844 92.582031 23.824219 91.292969 23.988281 C 91.609375 24.324219 92.3125 24.503906 93.152344 24.503906 C 94.683594 24.503906 96.539062 24.039062 97.511719 23.070312 C 96.214844 23.085938 95.382812 22.246094 95.300781 21.082031 C 95.933594 21.855469 96.648438 22.15625 97.484375 22.15625 " fill-opacity="1" fill-rule="evenodd"/></g><g clip-path="url(#3a60d4000f)"><path fill="#0070ad" d="M 83.839844 17.386719 C 83.839844 16.433594 83.785156 15.796875 83.164062 15.796875 C 82.882812 15.796875 82.746094 15.855469 82.5 15.9375 C 82.71875 19.15625 81.996094 21.992188 81.117188 21.992188 C 79.960938 21.992188 80.539062 15.089844 78.09375 15.089844 C 75.839844 15.089844 75.511719 20.597656 75.257812 20.597656 C 75.085938 20.597656 75.058594 19.152344 75.066406 18.046875 C 75.160156 17.519531 75.214844 17.046875 75.214844 16.683594 C 75.214844 16.171875 75.003906 15.285156 73.851562 15.730469 C 73.890625 19.667969 73.109375 22.046875 72.226562 22.046875 C 70.9375 22.046875 70.921875 18.476562 70.921875 17.492188 C 70.921875 16.53125 70.992188 15.246094 69.574219 15.703125 C 69.363281 19.140625 68.472656 21.730469 67.910156 21.730469 C 67.070312 21.730469 67.238281 15.796875 65.425781 15.796875 C 63.792969 15.796875 63.289062 21.417969 62.949219 21.417969 C 62.339844 21.417969 63.140625 15.089844 60.78125 15.089844 C 59.546875 15.089844 59.054688 17.203125 58.570312 19.566406 C 58.476562 20.023438 58.378906 20.039062 58.363281 19.523438 C 58.351562 19.082031 58.347656 18.640625 58.351562 18.199219 C 58.945312 15.820312 58.222656 14.941406 57.128906 15.574219 C 57.480469 19.964844 55.484375 22.109375 53.953125 22.109375 C 53.402344 22.109375 52.964844 21.871094 52.640625 21.496094 C 54.472656 20.359375 55.289062 19.054688 55.289062 17.78125 C 55.289062 16.402344 54.503906 15.605469 53.199219 15.605469 C 51.378906 15.605469 50.359375 17.496094 50.359375 19.105469 C 50.359375 19.972656 50.519531 20.710938 50.78125 21.316406 C 50.15625 21.613281 49.566406 21.875 49.019531 22.128906 C 48.96875 20.472656 48.785156 18.738281 48.644531 17.132812 C 47.671875 16.863281 47.390625 17.332031 47.316406 18.203125 C 47.140625 20.191406 46.414062 21.425781 45.769531 21.425781 C 45.285156 21.425781 44.984375 20.828125 44.949219 20.195312 C 44.769531 17.011719 47.332031 16.125 48.675781 16.585938 C 48.953125 15.882812 48.648438 15.378906 47.4375 15.378906 C 45.972656 15.378906 44.875 16.277344 44.070312 17.429688 C 43.535156 18.199219 42.914062 18.746094 42.089844 19.402344 C 42.113281 19.214844 42.121094 19.023438 42.121094 18.835938 C 42.121094 16.59375 40.917969 15.605469 39.765625 15.605469 C 38.8125 15.605469 38.210938 16.183594 37.867188 17.066406 C 37.78125 16.179688 37.605469 15.796875 37.09375 15.796875 C 36.875 15.796875 36.570312 15.859375 36.246094 16.019531 C 36.394531 16.515625 36.449219 17.613281 36.449219 18.335938 C 36.449219 21.035156 35.683594 22.246094 34.945312 22.246094 C 34.101562 22.246094 33.96875 19.042969 33.898438 17.796875 C 33.765625 17.746094 33.628906 17.71875 33.484375 17.71875 C 32.722656 17.71875 32.621094 18.753906 32.433594 19.703125 C 32.226562 20.757812 31.625 22.078125 30.734375 22.078125 C 30.195312 22.078125 29.859375 21.558594 29.816406 20.617188 C 29.726562 18.707031 31.304688 16.445312 33.769531 17.148438 C 34.089844 16.386719 33.585938 15.808594 32.5625 15.808594 C 30.761719 15.808594 29.273438 17.167969 28.621094 18.777344 C 27.960938 20.253906 26.808594 22.421875 24.460938 22.421875 C 22.804688 22.421875 21.53125 20.960938 21.53125 17.902344 C 21.53125 15.261719 23.183594 12.757812 24.941406 12.757812 C 26.171875 12.757812 26.457031 13.980469 26.347656 15.125 C 26.988281 15.640625 28.03125 15.160156 28.03125 13.871094 C 28.03125 12.984375 27.316406 11.476562 25.007812 11.476562 C 22.148438 11.476562 19.621094 14.351562 19.621094 18.128906 C 19.621094 21.789062 21.464844 23.949219 24.070312 23.949219 C 25.714844 23.949219 27.265625 23.003906 28.335938 21.257812 C 28.605469 22.785156 29.636719 23.429688 30.410156 23.429688 C 31.664062 23.429688 32.484375 22.609375 32.929688 21.503906 C 33.207031 22.613281 33.796875 23.433594 34.773438 23.433594 C 35.460938 23.433594 36 23.082031 36.402344 22.519531 C 36.242188 26.371094 36.042969 28.828125 38.296875 28.347656 C 37.949219 27.25 37.835938 25.257812 37.835938 23.464844 C 37.835938 18.5625 38.640625 16.949219 39.644531 16.949219 C 40.375 16.949219 40.609375 17.882812 40.609375 18.882812 C 40.609375 19.417969 40.558594 20.035156 40.421875 20.585938 C 39.1875 21.371094 38.203125 21.992188 38.203125 22.78125 C 38.203125 23.40625 38.660156 23.460938 39.058594 23.460938 C 40.007812 23.460938 41.148438 22.523438 41.777344 20.753906 C 42.328125 20.417969 42.882812 20.03125 43.410156 19.503906 C 43.390625 19.6875 43.382812 19.867188 43.382812 20.050781 C 43.382812 21.808594 44.144531 22.871094 45.363281 22.871094 C 46.316406 22.871094 47.03125 22.1875 47.539062 21.164062 C 47.570312 21.753906 47.589844 22.296875 47.597656 22.796875 C 45.664062 23.699219 43.523438 24.617188 43.523438 27.164062 C 43.523438 28.480469 44.464844 29.472656 45.691406 29.472656 C 48.390625 29.472656 49.007812 26.601562 49.03125 23.265625 C 49.910156 22.882812 50.5625 22.589844 51.316406 22.210938 C 51.960938 23.027344 52.839844 23.433594 53.644531 23.433594 C 55.164062 23.433594 56.308594 22.621094 57.226562 20.972656 C 57.386719 22.226562 57.710938 23.433594 58.371094 23.433594 C 59.578125 23.433594 59.824219 17.074219 60.71875 17.074219 C 61.40625 17.074219 60.84375 23.953125 62.65625 23.953125 C 64.210938 23.953125 64.5 17.898438 65.257812 17.898438 C 65.792969 17.898438 65.832031 23.433594 67.527344 23.433594 C 68.359375 23.433594 69.261719 22.425781 69.710938 20.3125 C 69.925781 21.71875 70.628906 23.433594 72.003906 23.433594 C 72.804688 23.433594 73.492188 22.617188 74.027344 21.53125 C 74.171875 22.648438 74.484375 23.433594 75.09375 23.433594 C 76.675781 23.433594 76.621094 17.085938 77.871094 17.085938 C 78.847656 17.085938 78.550781 23.433594 80.871094 23.433594 C 81.976562 23.433594 82.5 22.484375 82.8125 21.292969 C 83.238281 23.046875 83.929688 23.433594 84.496094 23.433594 C 84.855469 23.433594 85.128906 23.304688 85.488281 22.878906 C 83.6875 22.09375 83.839844 19.230469 83.839844 17.386719 M 45.808594 28.289062 C 45.25 28.289062 44.953125 27.75 44.953125 27.148438 C 44.953125 25.519531 46.140625 24.65625 47.597656 23.914062 C 47.535156 27.472656 46.714844 28.289062 45.808594 28.289062 M 53.0625 16.75 C 53.605469 16.75 53.917969 17.253906 53.863281 17.976562 C 53.800781 18.824219 53.1875 19.796875 52.121094 20.5625 C 51.5625 18.964844 51.980469 16.75 53.0625 16.75 M 70.273438 14.34375 C 70.789062 14.324219 71.152344 13.878906 71.152344 13.34375 C 71.160156 12.8125 70.796875 12.390625 70.28125 12.410156 C 69.761719 12.429688 69.339844 12.875 69.335938 13.410156 C 69.335938 13.535156 69.355469 13.65625 69.402344 13.773438 C 69.449219 13.886719 69.515625 13.992188 69.605469 14.078125 C 69.695312 14.167969 69.796875 14.234375 69.914062 14.28125 C 70.027344 14.324219 70.148438 14.347656 70.273438 14.34375 M 83.144531 14.613281 C 83.617188 14.59375 84.003906 14.171875 84.003906 13.664062 C 84.003906 13.152344 83.625 12.757812 83.152344 12.769531 C 82.679688 12.789062 82.296875 13.214844 82.296875 13.722656 C 82.289062 14.230469 82.675781 14.628906 83.144531 14.613281 M 100.648438 18.835938 C 100.605469 16.824219 99.660156 15.128906 98.195312 13.773438 C 97.082031 12.75 95.761719 11.972656 94.378906 11.386719 C 94.269531 11.339844 94.15625 11.292969 94.042969 11.25 C 92.339844 13.308594 86.4375 14.84375 86.4375 19.164062 C 86.4375 20.847656 87.496094 22.429688 89.046875 23.0625 C 89.945312 23.40625 90.84375 23.421875 91.746094 23.117188 C 92.546875 22.851562 93.207031 22.351562 93.753906 21.742188 C 95.484375 19.808594 96.191406 16.8125 98.316406 16.8125 C 100.261719 16.8125 100.523438 18.207031 100.648438 18.964844 C 100.648438 18.960938 100.648438 18.910156 100.644531 18.835938 " fill-opacity="1" fill-rule="evenodd"/></g></svg>