<svg xmlns="http://www.w3.org/2000/svg" xmlns:xlink="http://www.w3.org/1999/xlink" width="160" zoomAndPan="magnify" viewBox="0 0 120 41.25" height="55" preserveAspectRatio="xMidYMid meet" version="1.0"><metadata><ContainsAiGeneratedContent>Yes</ContainsAiGeneratedContent></metadata><defs><clipPath id="9f94281df3"><path d="M 1.070312 0 L 118.925781 0 L 118.925781 40.511719 L 1.070312 40.511719 Z M 1.070312 0 " clip-rule="nonzero"/></clipPath><clipPath id="1bca6ed395"><path d="M 26.585938 11 L 93.617188 11 L 93.617188 33.992188 L 26.585938 33.992188 Z M 26.585938 11 " clip-rule="nonzero"/></clipPath><clipPath id="581b89fefa"><path d="M 76 6.738281 L 93.617188 6.738281 L 93.617188 28 L 76 28 Z M 76 6.738281 " clip-rule="nonzero"/></clipPath><clipPath id="257b8df52e"><path d="M 77 14 L 87 14 L 87 24 L 77 24 Z M 77 14 " clip-rule="nonzero"/></clipPath><clipPath id="def2b06780"><path d="M 83.6875 9.5625 C 83.375 9.753906 83.066406 9.957031 82.761719 10.171875 C 79.347656 11.261719 76.867188 14.566406 76.867188 18.476562 C 76.867188 21.9375 78.816406 24.929688 81.632812 26.324219 C 81.296875 26.414062 80.960938 26.5 80.628906 26.570312 C 81.085938 26.558594 81.539062 26.535156 81.992188 26.492188 C 82.984375 26.921875 84.070312 27.160156 85.210938 27.160156 C 89.820312 27.160156 93.558594 23.269531 93.558594 18.476562 C 93.558594 14.09375 90.441406 10.46875 86.386719 9.875 C 86.339844 9.855469 86.292969 9.832031 86.246094 9.8125 C 87.972656 8.792969 89.878906 8.371094 91.9375 8.0625 C 91.425781 8.039062 90.910156 8.023438 90.394531 8.023438 C 88.074219 8.023438 85.707031 8.332031 83.6875 9.5625 M 80.289062 7.824219 C 80.289062 8.605469 81.007812 9.339844 81.894531 9.472656 C 82.78125 9.601562 83.5 9.078125 83.5 8.300781 C 83.5 7.523438 82.78125 6.785156 81.894531 6.65625 C 81.804688 6.640625 81.714844 6.632812 81.625 6.632812 C 80.867188 6.632812 80.289062 7.128906 80.289062 7.824219 " clip-rule="nonzero"/></clipPath><clipPath id="9eb73ee01c"><path d="M 79 8 L 92 8 L 92 27 L 79 27 Z M 79 8 " clip-rule="nonzero"/></clipPath><clipPath id="2a04fb5cae"><path d="M 83.6875 9.5625 C 83.375 9.753906 83.066406 9.957031 82.761719 10.171875 C 79.347656 11.261719 76.867188 14.566406 76.867188 18.476562 C 76.867188 21.9375 78.816406 24.929688 81.632812 26.324219 C 81.296875 26.414062 80.960938 26.5 80.628906 26.570312 C 81.085938 26.558594 81.539062 26.535156 81.992188 26.492188 C 82.984375 26.921875 84.070312 27.160156 85.210938 27.160156 C 89.820312 27.160156 93.558594 23.269531 93.558594 18.476562 C 93.558594 14.09375 90.441406 10.46875 86.386719 9.875 C 86.339844 9.855469 86.292969 9.832031 86.246094 9.8125 C 87.972656 8.792969 89.878906 8.371094 91.9375 8.0625 C 91.425781 8.039062 90.910156 8.023438 90.394531 8.023438 C 88.074219 8.023438 85.707031 8.332031 83.6875 9.5625 M 80.289062 7.824219 C 80.289062 8.605469 81.007812 9.339844 81.894531 9.472656 C 82.78125 9.601562 83.5 9.078125 83.5 8.300781 C 83.5 7.523438 82.78125 6.785156 81.894531 6.65625 C 81.804688 6.640625 81.714844 6.632812 81.625 6.632812 C 80.867188 6.632812 80.289062 7.128906 80.289062 7.824219 " clip-rule="nonzero"/></clipPath><clipPath id="f98d6245d3"><path d="M 76 6.738281 L 93.617188 6.738281 L 93.617188 28 L 76 28 Z M 76 6.738281 " clip-rule="nonzero"/></clipPath><clipPath id="7e165ee197"><path d="M 77 14 L 87 14 L 87 24 L 77 24 Z M 77 14 " clip-rule="nonzero"/></clipPath><clipPath id="cb10f15a0a"><path d="M 83.6875 9.574219 C 83.375 9.765625 83.066406 9.96875 82.761719 10.183594 C 79.347656 11.273438 76.867188 14.59375 76.867188 18.515625 C 76.867188 21.988281 78.816406 24.988281 81.632812 26.386719 C 81.296875 26.480469 80.960938 26.5625 80.628906 26.636719 C 81.085938 26.625 81.539062 26.597656 81.992188 26.554688 C 82.984375 26.988281 84.070312 27.226562 85.210938 27.226562 C 89.820312 27.226562 93.558594 23.324219 93.558594 18.515625 C 93.558594 14.117188 90.441406 10.484375 86.386719 9.886719 C 86.339844 9.863281 86.292969 9.84375 86.246094 9.824219 C 87.972656 8.800781 89.878906 8.375 91.9375 8.066406 C 91.425781 8.042969 90.910156 8.027344 90.394531 8.027344 C 88.074219 8.027344 85.707031 8.335938 83.6875 9.574219 M 80.289062 7.828125 C 80.289062 8.609375 81.007812 9.347656 81.894531 9.480469 C 82.78125 9.609375 83.5 9.085938 83.5 8.304688 C 83.5 7.523438 82.78125 6.785156 81.894531 6.65625 C 81.804688 6.640625 81.714844 6.632812 81.625 6.632812 C 80.867188 6.632812 80.289062 7.128906 80.289062 7.828125 " clip-rule="nonzero"/></clipPath><clipPath id="6d3264e35c"><path d="M 79 8 L 92 8 L 92 27 L 79 27 Z M 79 8 " clip-rule="nonzero"/></clipPath><clipPath id="bb97fb2292"><path d="M 83.6875 9.574219 C 83.375 9.765625 83.066406 9.96875 82.761719 10.183594 C 79.347656 11.273438 76.867188 14.59375 76.867188 18.515625 C 76.867188 21.988281 78.816406 24.988281 81.632812 26.386719 C 81.296875 26.480469 80.960938 26.5625 80.628906 26.636719 C 81.085938 26.625 81.539062 26.597656 81.992188 26.554688 C 82.984375 26.988281 84.070312 27.226562 85.210938 27.226562 C 89.820312 27.226562 93.558594 23.324219 93.558594 18.515625 C 93.558594 14.117188 90.441406 10.484375 86.386719 9.886719 C 86.339844 9.863281 86.292969 9.84375 86.246094 9.824219 C 87.972656 8.800781 89.878906 8.375 91.9375 8.066406 C 91.425781 8.042969 90.910156 8.027344 90.394531 8.027344 C 88.074219 8.027344 85.707031 8.335938 83.6875 9.574219 M 80.289062 7.828125 C 80.289062 8.609375 81.007812 9.347656 81.894531 9.480469 C 82.78125 9.609375 83.5 9.085938 83.5 8.304688 C 83.5 7.523438 82.78125 6.785156 81.894531 6.65625 C 81.804688 6.640625 81.714844 6.632812 81.625 6.632812 C 80.867188 6.632812 80.289062 7.128906 80.289062 7.828125 " clip-rule="nonzero"/></clipPath></defs><g clip-path="url(#9f94281df3)"><path fill="#ffffff" d="M 1.070312 0 L 118.929688 0 L 118.929688 40.511719 L 1.070312 40.511719 Z M 1.070312 0 " fill-opacity="1" fill-rule="nonzero"/><path fill="#ffffff" d="M 1.070312 0 L 118.929688 0 L 118.929688 40.511719 L 1.070312 40.511719 Z M 1.070312 0 " fill-opacity="1" fill-rule="nonzero"/></g><g clip-path="url(#1bca6ed395)"><path fill="#010102" d="M 92.085938 32.257812 C 92.085938 32.035156 92.164062 31.859375 92.320312 31.722656 C 92.480469 31.589844 92.667969 31.519531 92.882812 31.519531 C 93.121094 31.519531 93.316406 31.566406 93.457031 31.652344 C 93.40625 31.773438 93.371094 31.894531 93.34375 32.015625 L 93.292969 32.015625 C 93.191406 31.792969 93.042969 31.679688 92.855469 31.679688 C 92.746094 31.679688 92.652344 31.710938 92.570312 31.765625 C 92.484375 31.824219 92.4375 31.90625 92.425781 32.015625 C 92.425781 32.054688 92.421875 32.089844 92.414062 32.117188 C 92.417969 32.246094 92.464844 32.347656 92.554688 32.417969 C 92.644531 32.488281 92.78125 32.554688 92.964844 32.617188 C 93.148438 32.679688 93.246094 32.710938 93.253906 32.714844 C 93.484375 32.828125 93.597656 33.011719 93.597656 33.253906 C 93.597656 33.484375 93.515625 33.675781 93.351562 33.828125 C 93.191406 33.984375 92.964844 34.066406 92.679688 34.078125 C 92.59375 34.078125 92.488281 34.0625 92.363281 34.03125 C 92.242188 34 92.136719 33.957031 92.054688 33.90625 C 92.066406 33.867188 92.082031 33.8125 92.105469 33.738281 C 92.128906 33.667969 92.144531 33.59375 92.15625 33.527344 L 92.191406 33.527344 C 92.265625 33.648438 92.355469 33.742188 92.464844 33.808594 C 92.570312 33.875 92.675781 33.910156 92.777344 33.910156 C 92.921875 33.90625 93.035156 33.859375 93.121094 33.765625 C 93.210938 33.671875 93.253906 33.566406 93.253906 33.449219 C 93.253906 33.304688 93.214844 33.199219 93.132812 33.132812 C 93.054688 33.066406 92.933594 33.011719 92.777344 32.96875 C 92.597656 32.917969 92.464844 32.871094 92.382812 32.832031 C 92.296875 32.792969 92.222656 32.726562 92.167969 32.640625 C 92.109375 32.550781 92.082031 32.425781 92.085938 32.257812 M 91.285156 32.585938 C 91.285156 31.984375 91.078125 31.679688 90.660156 31.671875 C 90.4375 31.671875 90.265625 31.761719 90.152344 31.945312 C 90.035156 32.128906 89.96875 32.34375 89.949219 32.585938 Z M 89.507812 32.796875 C 89.519531 32.367188 89.632812 32.042969 89.851562 31.828125 C 90.074219 31.613281 90.34375 31.511719 90.660156 31.519531 C 91.058594 31.523438 91.332031 31.664062 91.480469 31.9375 C 91.628906 32.214844 91.695312 32.496094 91.675781 32.789062 C 91.355469 32.78125 90.78125 32.777344 89.949219 32.777344 C 89.921875 33.078125 89.988281 33.328125 90.148438 33.539062 C 90.308594 33.75 90.535156 33.851562 90.828125 33.851562 C 91.058594 33.851562 91.300781 33.734375 91.554688 33.492188 L 91.546875 33.761719 C 91.277344 33.972656 90.992188 34.078125 90.699219 34.078125 C 90.3125 34.078125 90.015625 33.953125 89.8125 33.703125 C 89.609375 33.453125 89.507812 33.152344 89.507812 32.796875 M 86.941406 34.035156 L 86.941406 31.546875 C 87 31.546875 87.058594 31.554688 87.117188 31.566406 C 87.222656 31.554688 87.296875 31.546875 87.339844 31.546875 L 87.339844 32.015625 C 87.425781 31.882812 87.527344 31.765625 87.652344 31.667969 C 87.773438 31.570312 87.941406 31.519531 88.148438 31.519531 C 88.40625 31.519531 88.605469 31.59375 88.742188 31.738281 C 88.882812 31.878906 88.953125 32.132812 88.953125 32.492188 L 88.953125 34.035156 C 88.90625 34.027344 88.871094 34.023438 88.847656 34.023438 C 88.820312 34.019531 88.789062 34.019531 88.753906 34.015625 C 88.722656 34.019531 88.699219 34.019531 88.675781 34.023438 C 88.652344 34.023438 88.609375 34.027344 88.550781 34.035156 L 88.550781 32.621094 C 88.550781 32.285156 88.5 32.058594 88.398438 31.945312 C 88.300781 31.835938 88.164062 31.78125 87.996094 31.78125 C 87.558594 31.78125 87.339844 32.101562 87.339844 32.734375 L 87.339844 34.035156 C 87.289062 34.027344 87.246094 34.023438 87.21875 34.023438 C 87.1875 34.019531 87.152344 34.019531 87.117188 34.015625 C 87.089844 34.019531 87.066406 34.019531 87.042969 34.023438 C 87.023438 34.023438 86.988281 34.027344 86.941406 34.035156 M 84.410156 32.847656 C 84.410156 33.105469 84.464844 33.34375 84.578125 33.566406 C 84.691406 33.785156 84.886719 33.898438 85.167969 33.910156 C 85.398438 33.910156 85.589844 33.800781 85.738281 33.582031 C 85.886719 33.359375 85.964844 33.097656 85.964844 32.789062 C 85.964844 32.511719 85.90625 32.257812 85.785156 32.023438 C 85.667969 31.792969 85.484375 31.675781 85.238281 31.671875 C 84.960938 31.667969 84.757812 31.777344 84.617188 32.003906 C 84.480469 32.230469 84.410156 32.511719 84.410156 32.847656 M 83.972656 32.855469 C 83.960938 32.59375 84.011719 32.363281 84.121094 32.160156 C 84.226562 31.957031 84.378906 31.796875 84.570312 31.679688 C 84.761719 31.566406 84.972656 31.511719 85.199219 31.511719 C 85.433594 31.511719 85.640625 31.566406 85.824219 31.675781 C 86.007812 31.78125 86.148438 31.9375 86.25 32.132812 C 86.347656 32.328125 86.398438 32.542969 86.398438 32.777344 C 86.398438 32.980469 86.355469 33.179688 86.265625 33.378906 C 86.179688 33.582031 86.039062 33.746094 85.847656 33.878906 C 85.660156 34.011719 85.425781 34.078125 85.152344 34.078125 L 85.144531 34.078125 C 84.910156 34.070312 84.707031 34.015625 84.535156 33.917969 C 84.363281 33.820312 84.226562 33.679688 84.132812 33.496094 C 84.035156 33.316406 83.980469 33.101562 83.972656 32.855469 M 82.757812 33.269531 L 82.757812 31.738281 L 82.449219 31.738281 C 82.453125 31.714844 82.460938 31.683594 82.460938 31.648438 C 82.460938 31.601562 82.453125 31.566406 82.449219 31.546875 L 82.757812 31.546875 L 82.757812 31.03125 L 83.15625 30.871094 L 83.15625 31.546875 L 83.6875 31.546875 C 83.6875 31.589844 83.683594 31.625 83.675781 31.648438 C 83.683594 31.671875 83.6875 31.699219 83.6875 31.738281 L 83.15625 31.738281 L 83.15625 33.164062 C 83.15625 33.195312 83.15625 33.226562 83.148438 33.253906 C 83.15625 33.445312 83.179688 33.597656 83.226562 33.707031 C 83.273438 33.820312 83.371094 33.878906 83.523438 33.894531 C 83.613281 33.878906 83.691406 33.867188 83.75 33.851562 L 83.75 33.972656 C 83.597656 34.035156 83.449219 34.066406 83.308594 34.066406 C 83.191406 34.066406 83.097656 34.050781 83.03125 34.015625 C 82.914062 33.949219 82.835938 33.855469 82.804688 33.734375 C 82.773438 33.617188 82.757812 33.460938 82.757812 33.269531 M 80.703125 32.257812 C 80.703125 32.035156 80.78125 31.859375 80.9375 31.722656 C 81.097656 31.589844 81.285156 31.519531 81.5 31.519531 C 81.742188 31.519531 81.929688 31.566406 82.074219 31.652344 C 82.023438 31.773438 81.988281 31.894531 81.960938 32.015625 L 81.910156 32.015625 C 81.808594 31.792969 81.660156 31.679688 81.46875 31.679688 C 81.363281 31.679688 81.269531 31.710938 81.1875 31.765625 C 81.101562 31.824219 81.054688 31.90625 81.039062 32.015625 C 81.039062 32.054688 81.039062 32.089844 81.03125 32.117188 C 81.035156 32.246094 81.082031 32.347656 81.171875 32.417969 C 81.261719 32.488281 81.398438 32.554688 81.582031 32.617188 C 81.769531 32.679688 81.863281 32.710938 81.871094 32.714844 C 82.097656 32.828125 82.214844 33.011719 82.214844 33.253906 C 82.214844 33.484375 82.132812 33.675781 81.96875 33.828125 C 81.808594 33.984375 81.582031 34.066406 81.292969 34.078125 C 81.210938 34.078125 81.105469 34.0625 80.980469 34.03125 C 80.859375 34 80.753906 33.957031 80.671875 33.90625 C 80.683594 33.867188 80.699219 33.8125 80.722656 33.738281 C 80.746094 33.667969 80.761719 33.59375 80.773438 33.527344 L 80.804688 33.527344 C 80.882812 33.648438 80.972656 33.742188 81.082031 33.808594 C 81.1875 33.875 81.292969 33.910156 81.394531 33.910156 C 81.539062 33.90625 81.652344 33.859375 81.742188 33.765625 C 81.824219 33.671875 81.871094 33.566406 81.871094 33.449219 C 81.871094 33.304688 81.828125 33.199219 81.75 33.132812 C 81.667969 33.066406 81.550781 33.011719 81.394531 32.96875 C 81.214844 32.917969 81.082031 32.871094 80.996094 32.832031 C 80.914062 32.792969 80.84375 32.726562 80.785156 32.640625 C 80.726562 32.550781 80.699219 32.425781 80.703125 32.257812 M 78.066406 34.035156 L 78.066406 30.128906 C 78.121094 30.128906 78.179688 30.136719 78.238281 30.148438 C 78.347656 30.136719 78.417969 30.128906 78.453125 30.128906 L 78.453125 32.015625 C 78.640625 31.683594 78.910156 31.519531 79.261719 31.519531 C 79.554688 31.511719 79.761719 31.59375 79.882812 31.773438 C 80.003906 31.953125 80.066406 32.175781 80.066406 32.449219 L 80.066406 34.035156 C 80.050781 34.03125 80.027344 34.027344 80.003906 34.027344 C 79.980469 34.027344 79.957031 34.023438 79.929688 34.023438 C 79.90625 34.019531 79.886719 34.019531 79.867188 34.015625 C 79.839844 34.019531 79.808594 34.019531 79.78125 34.023438 C 79.757812 34.023438 79.71875 34.027344 79.664062 34.035156 L 79.664062 32.566406 C 79.664062 32.332031 79.625 32.144531 79.546875 32 C 79.472656 31.851562 79.328125 31.78125 79.117188 31.78125 C 78.878906 31.785156 78.710938 31.859375 78.605469 32.007812 C 78.503906 32.152344 78.457031 32.335938 78.457031 32.554688 L 78.457031 34.035156 C 78.414062 34.027344 78.378906 34.023438 78.351562 34.023438 C 78.324219 34.019531 78.292969 34.019531 78.261719 34.015625 C 78.230469 34.019531 78.203125 34.019531 78.175781 34.023438 C 78.148438 34.023438 78.113281 34.027344 78.066406 34.035156 M 75.386719 32.789062 C 75.386719 32.410156 75.5 32.105469 75.726562 31.871094 C 75.953125 31.636719 76.277344 31.519531 76.695312 31.519531 C 76.957031 31.515625 77.214844 31.582031 77.472656 31.722656 L 77.355469 32.066406 L 77.316406 32.066406 C 77.167969 31.816406 76.957031 31.691406 76.683594 31.691406 C 76.410156 31.691406 76.199219 31.796875 76.046875 32.007812 C 75.898438 32.214844 75.824219 32.464844 75.824219 32.757812 C 75.824219 33.085938 75.90625 33.359375 76.074219 33.574219 C 76.238281 33.789062 76.460938 33.894531 76.742188 33.894531 C 76.878906 33.894531 76.996094 33.867188 77.089844 33.8125 C 77.1875 33.761719 77.296875 33.675781 77.421875 33.558594 L 77.449219 33.566406 L 77.429688 33.8125 C 77.183594 33.988281 76.929688 34.078125 76.660156 34.078125 C 76.40625 34.078125 76.179688 34.023438 75.984375 33.914062 C 75.789062 33.808594 75.640625 33.65625 75.539062 33.460938 C 75.4375 33.265625 75.386719 33.042969 75.386719 32.789062 M 72.738281 33.152344 L 72.738281 31.546875 C 72.773438 31.550781 72.800781 31.554688 72.832031 31.554688 C 72.859375 31.554688 72.890625 31.5625 72.921875 31.566406 C 72.96875 31.5625 73.007812 31.554688 73.039062 31.554688 C 73.070312 31.554688 73.101562 31.550781 73.136719 31.546875 L 73.136719 33.011719 C 73.136719 33.242188 73.1875 33.4375 73.28125 33.589844 C 73.375 33.746094 73.53125 33.824219 73.753906 33.824219 C 73.984375 33.824219 74.144531 33.738281 74.230469 33.574219 C 74.316406 33.410156 74.359375 33.21875 74.359375 33 L 74.359375 31.546875 C 74.402344 31.546875 74.464844 31.554688 74.546875 31.566406 C 74.644531 31.554688 74.71875 31.546875 74.761719 31.546875 L 74.761719 34.035156 C 74.699219 34.027344 74.660156 34.023438 74.636719 34.023438 C 74.617188 34.019531 74.589844 34.019531 74.554688 34.015625 C 74.527344 34.019531 74.5 34.019531 74.480469 34.023438 C 74.460938 34.023438 74.421875 34.027344 74.359375 34.035156 L 74.359375 33.589844 C 74.273438 33.75 74.167969 33.871094 74.042969 33.945312 C 73.921875 34.023438 73.765625 34.066406 73.578125 34.078125 C 73.242188 34.089844 73.019531 33.992188 72.90625 33.777344 C 72.792969 33.566406 72.738281 33.355469 72.738281 33.152344 M 70.246094 32.847656 C 70.246094 33.105469 70.304688 33.34375 70.414062 33.566406 C 70.527344 33.785156 70.722656 33.898438 71.007812 33.910156 C 71.234375 33.910156 71.425781 33.800781 71.574219 33.582031 C 71.726562 33.359375 71.800781 33.097656 71.800781 32.789062 C 71.800781 32.511719 71.742188 32.257812 71.625 32.023438 C 71.503906 31.792969 71.320312 31.675781 71.074219 31.671875 C 70.800781 31.667969 70.59375 31.777344 70.453125 32.003906 C 70.316406 32.230469 70.246094 32.511719 70.246094 32.847656 M 69.808594 32.855469 C 69.796875 32.59375 69.847656 32.363281 69.957031 32.160156 C 70.0625 31.957031 70.214844 31.796875 70.40625 31.679688 C 70.597656 31.566406 70.808594 31.511719 71.035156 31.511719 C 71.269531 31.511719 71.476562 31.566406 71.660156 31.675781 C 71.84375 31.78125 71.984375 31.9375 72.085938 32.132812 C 72.183594 32.328125 72.234375 32.542969 72.234375 32.777344 C 72.234375 32.980469 72.191406 33.179688 72.101562 33.378906 C 72.015625 33.582031 71.875 33.746094 71.683594 33.878906 C 71.496094 34.011719 71.261719 34.078125 70.988281 34.078125 L 70.980469 34.078125 C 70.75 34.070312 70.546875 34.015625 70.371094 33.917969 C 70.199219 33.820312 70.0625 33.679688 69.96875 33.496094 C 69.871094 33.316406 69.820312 33.101562 69.808594 32.855469 M 68.59375 33.269531 L 68.59375 31.738281 L 68.285156 31.738281 C 68.292969 31.714844 68.296875 31.683594 68.296875 31.648438 C 68.296875 31.601562 68.292969 31.566406 68.285156 31.546875 L 68.59375 31.546875 L 68.59375 31.03125 L 68.996094 30.871094 L 68.996094 31.546875 L 69.523438 31.546875 C 69.523438 31.589844 69.519531 31.625 69.511719 31.648438 C 69.519531 31.671875 69.523438 31.699219 69.523438 31.738281 L 68.996094 31.738281 L 68.996094 33.164062 C 68.996094 33.195312 68.992188 33.226562 68.984375 33.253906 C 68.992188 33.445312 69.019531 33.597656 69.0625 33.707031 C 69.109375 33.820312 69.207031 33.878906 69.359375 33.894531 C 69.449219 33.878906 69.527344 33.867188 69.585938 33.851562 L 69.585938 33.972656 C 69.433594 34.035156 69.289062 34.066406 69.144531 34.066406 C 69.027344 34.066406 68.933594 34.050781 68.867188 34.015625 C 68.75 33.949219 68.671875 33.855469 68.640625 33.734375 C 68.609375 33.617188 68.59375 33.460938 68.59375 33.269531 M 66.199219 32.585938 C 66.199219 31.984375 65.992188 31.679688 65.574219 31.671875 C 65.347656 31.671875 65.179688 31.761719 65.0625 31.945312 C 64.949219 32.128906 64.878906 32.34375 64.859375 32.585938 Z M 64.421875 32.796875 C 64.433594 32.367188 64.546875 32.042969 64.765625 31.828125 C 64.988281 31.613281 65.257812 31.511719 65.574219 31.519531 C 65.972656 31.523438 66.246094 31.664062 66.394531 31.9375 C 66.542969 32.214844 66.609375 32.496094 66.589844 32.789062 C 66.269531 32.78125 65.695312 32.777344 64.859375 32.777344 C 64.835938 33.078125 64.902344 33.328125 65.0625 33.539062 C 65.222656 33.75 65.449219 33.851562 65.742188 33.851562 C 65.972656 33.851562 66.214844 33.734375 66.46875 33.492188 L 66.460938 33.761719 C 66.191406 33.972656 65.90625 34.078125 65.609375 34.078125 C 65.226562 34.078125 64.929688 33.953125 64.726562 33.703125 C 64.523438 33.453125 64.421875 33.152344 64.421875 32.796875 M 62.917969 34.035156 L 62.917969 31.546875 C 62.976562 31.546875 63.035156 31.554688 63.09375 31.566406 C 63.214844 31.554688 63.289062 31.546875 63.320312 31.546875 L 63.320312 32.066406 C 63.378906 31.9375 63.46875 31.816406 63.589844 31.699219 C 63.710938 31.578125 63.839844 31.519531 63.972656 31.519531 C 64.03125 31.519531 64.085938 31.527344 64.128906 31.535156 L 64.0625 31.972656 C 63.992188 31.921875 63.914062 31.894531 63.828125 31.894531 C 63.660156 31.894531 63.53125 31.960938 63.445312 32.09375 C 63.359375 32.222656 63.320312 32.386719 63.320312 32.574219 L 63.320312 34.035156 C 63.257812 34.015625 63.191406 34.003906 63.113281 34.003906 C 63.046875 34.003906 62.980469 34.015625 62.917969 34.035156 M 61.703125 33.496094 L 61.703125 32.734375 C 61.558594 32.761719 61.410156 32.789062 61.246094 32.824219 C 61.089844 32.859375 60.957031 32.917969 60.847656 33.003906 C 60.738281 33.089844 60.679688 33.210938 60.667969 33.363281 C 60.675781 33.40625 60.679688 33.4375 60.679688 33.457031 C 60.683594 33.472656 60.683594 33.496094 60.6875 33.527344 C 60.707031 33.617188 60.757812 33.695312 60.839844 33.761719 C 60.921875 33.824219 61.015625 33.859375 61.117188 33.863281 C 61.335938 33.851562 61.53125 33.730469 61.703125 33.496094 M 60.269531 33.449219 C 60.269531 33.238281 60.316406 33.082031 60.410156 32.976562 C 60.503906 32.867188 60.667969 32.792969 60.902344 32.746094 C 60.921875 32.742188 61.015625 32.730469 61.195312 32.707031 C 61.375 32.679688 61.507812 32.644531 61.59375 32.597656 C 61.679688 32.546875 61.722656 32.460938 61.722656 32.332031 C 61.722656 32.160156 61.667969 32.019531 61.550781 31.90625 C 61.4375 31.789062 61.300781 31.734375 61.136719 31.734375 C 61.007812 31.734375 60.886719 31.765625 60.777344 31.824219 C 60.664062 31.886719 60.585938 31.972656 60.542969 32.085938 L 60.484375 32.085938 L 60.484375 31.800781 C 60.75 31.613281 61.019531 31.519531 61.292969 31.519531 C 61.546875 31.519531 61.746094 31.589844 61.886719 31.722656 C 62.03125 31.855469 62.101562 32.066406 62.101562 32.363281 L 62.101562 33.609375 C 62.101562 33.636719 62.097656 33.660156 62.089844 33.683594 C 62.101562 33.738281 62.113281 33.777344 62.128906 33.800781 C 62.144531 33.820312 62.175781 33.84375 62.226562 33.863281 C 62.261719 33.855469 62.285156 33.851562 62.300781 33.847656 C 62.320312 33.84375 62.332031 33.84375 62.339844 33.835938 C 62.351562 33.835938 62.363281 33.832031 62.375 33.832031 L 62.375 33.941406 C 62.261719 33.992188 62.15625 34.015625 62.0625 34.015625 C 61.847656 34.015625 61.730469 33.910156 61.710938 33.699219 C 61.5 33.949219 61.246094 34.078125 60.953125 34.078125 C 60.761719 34.078125 60.597656 34.015625 60.46875 33.898438 C 60.335938 33.777344 60.269531 33.628906 60.269531 33.449219 M 56.84375 32.257812 C 56.84375 32.035156 56.921875 31.859375 57.082031 31.722656 C 57.238281 31.589844 57.425781 31.519531 57.640625 31.519531 C 57.882812 31.519531 58.070312 31.566406 58.214844 31.652344 C 58.167969 31.773438 58.128906 31.894531 58.101562 32.015625 L 58.050781 32.015625 C 57.949219 31.792969 57.800781 31.679688 57.613281 31.679688 C 57.503906 31.679688 57.410156 31.710938 57.328125 31.765625 C 57.242188 31.824219 57.195312 31.90625 57.183594 32.015625 C 57.183594 32.054688 57.179688 32.089844 57.171875 32.117188 C 57.175781 32.246094 57.222656 32.347656 57.3125 32.417969 C 57.402344 32.488281 57.539062 32.554688 57.722656 32.617188 C 57.910156 32.679688 58.003906 32.710938 58.011719 32.714844 C 58.242188 32.828125 58.355469 33.011719 58.355469 33.253906 C 58.355469 33.484375 58.273438 33.675781 58.109375 33.828125 C 57.949219 33.984375 57.722656 34.066406 57.4375 34.078125 C 57.351562 34.078125 57.246094 34.0625 57.121094 34.03125 C 57 34 56.894531 33.957031 56.8125 33.90625 C 56.824219 33.867188 56.839844 33.8125 56.863281 33.738281 C 56.886719 33.667969 56.902344 33.59375 56.914062 33.527344 L 56.949219 33.527344 C 57.023438 33.648438 57.117188 33.742188 57.222656 33.808594 C 57.328125 33.875 57.433594 33.910156 57.539062 33.910156 C 57.679688 33.90625 57.796875 33.859375 57.882812 33.765625 C 57.96875 33.671875 58.011719 33.566406 58.011719 33.449219 C 58.011719 33.304688 57.972656 33.199219 57.890625 33.132812 C 57.8125 33.066406 57.695312 33.011719 57.539062 32.96875 C 57.355469 32.917969 57.226562 32.871094 57.140625 32.832031 C 57.054688 32.792969 56.984375 32.726562 56.925781 32.640625 C 56.867188 32.550781 56.839844 32.425781 56.84375 32.257812 M 56.042969 32.585938 C 56.042969 31.984375 55.835938 31.679688 55.421875 31.671875 C 55.195312 31.671875 55.023438 31.761719 54.90625 31.945312 C 54.792969 32.128906 54.726562 32.34375 54.707031 32.585938 Z M 54.265625 32.796875 C 54.277344 32.367188 54.390625 32.042969 54.613281 31.828125 C 54.832031 31.613281 55.101562 31.511719 55.421875 31.519531 C 55.816406 31.523438 56.089844 31.664062 56.238281 31.9375 C 56.390625 32.214844 56.453125 32.496094 56.433594 32.789062 C 56.113281 32.78125 55.539062 32.777344 54.707031 32.777344 C 54.679688 33.078125 54.746094 33.328125 54.90625 33.539062 C 55.066406 33.75 55.292969 33.851562 55.585938 33.851562 C 55.816406 33.851562 56.058594 33.734375 56.3125 33.492188 L 56.304688 33.761719 C 56.035156 33.972656 55.75 34.078125 55.453125 34.078125 C 55.070312 34.078125 54.773438 33.953125 54.570312 33.703125 C 54.367188 33.453125 54.265625 33.152344 54.265625 32.796875 M 51.699219 34.035156 L 51.699219 31.546875 C 51.757812 31.546875 51.816406 31.554688 51.875 31.566406 C 51.980469 31.554688 52.054688 31.546875 52.101562 31.546875 L 52.101562 32.015625 C 52.183594 31.882812 52.285156 31.765625 52.410156 31.667969 C 52.53125 31.570312 52.699219 31.519531 52.910156 31.519531 C 53.164062 31.519531 53.363281 31.59375 53.503906 31.738281 C 53.644531 31.878906 53.710938 32.132812 53.710938 32.492188 L 53.710938 34.035156 C 53.667969 34.027344 53.632812 34.023438 53.605469 34.023438 C 53.578125 34.019531 53.550781 34.019531 53.511719 34.015625 C 53.484375 34.019531 53.457031 34.019531 53.433594 34.023438 C 53.410156 34.023438 53.367188 34.027344 53.308594 34.035156 L 53.308594 32.621094 C 53.308594 32.285156 53.257812 32.058594 53.160156 31.945312 C 53.058594 31.835938 52.921875 31.78125 52.753906 31.78125 C 52.316406 31.78125 52.101562 32.101562 52.101562 32.734375 L 52.101562 34.035156 C 52.046875 34.027344 52.003906 34.023438 51.976562 34.023438 C 51.945312 34.019531 51.914062 34.019531 51.875 34.015625 C 51.847656 34.019531 51.824219 34.019531 51.804688 34.023438 C 51.78125 34.023438 51.746094 34.027344 51.699219 34.035156 M 49.167969 32.847656 C 49.167969 33.105469 49.226562 33.34375 49.335938 33.566406 C 49.449219 33.785156 49.644531 33.898438 49.929688 33.910156 C 50.15625 33.910156 50.347656 33.800781 50.496094 33.582031 C 50.648438 33.359375 50.722656 33.097656 50.722656 32.789062 C 50.722656 32.511719 50.664062 32.257812 50.546875 32.023438 C 50.425781 31.792969 50.242188 31.675781 49.996094 31.671875 C 49.722656 31.667969 49.515625 31.777344 49.375 32.003906 C 49.238281 32.230469 49.167969 32.511719 49.167969 32.847656 M 48.730469 32.855469 C 48.71875 32.59375 48.769531 32.363281 48.878906 32.160156 C 48.984375 31.957031 49.136719 31.796875 49.328125 31.679688 C 49.523438 31.566406 49.730469 31.511719 49.957031 31.511719 C 50.191406 31.511719 50.398438 31.566406 50.582031 31.675781 C 50.765625 31.78125 50.90625 31.9375 51.007812 32.132812 C 51.105469 32.328125 51.15625 32.542969 51.15625 32.777344 C 51.15625 32.980469 51.113281 33.179688 51.023438 33.378906 C 50.9375 33.582031 50.796875 33.746094 50.609375 33.878906 C 50.417969 34.011719 50.183594 34.078125 49.910156 34.078125 L 49.902344 34.078125 C 49.671875 34.070312 49.46875 34.015625 49.292969 33.917969 C 49.121094 33.820312 48.988281 33.679688 48.890625 33.496094 C 48.792969 33.316406 48.738281 33.101562 48.730469 32.855469 M 47.378906 33.269531 L 47.378906 31.738281 L 47.070312 31.738281 C 47.074219 31.714844 47.078125 31.683594 47.078125 31.648438 C 47.078125 31.601562 47.074219 31.566406 47.070312 31.546875 L 47.378906 31.546875 L 47.378906 31.03125 L 47.777344 30.871094 L 47.777344 31.546875 L 48.308594 31.546875 C 48.308594 31.589844 48.304688 31.625 48.296875 31.648438 C 48.304688 31.671875 48.308594 31.699219 48.308594 31.738281 L 47.777344 31.738281 L 47.777344 33.164062 C 47.777344 33.195312 47.773438 33.226562 47.769531 33.253906 C 47.773438 33.445312 47.800781 33.597656 47.847656 33.707031 C 47.894531 33.820312 47.992188 33.878906 48.140625 33.894531 C 48.234375 33.878906 48.3125 33.867188 48.371094 33.851562 L 48.371094 33.972656 C 48.21875 34.035156 48.070312 34.066406 47.925781 34.066406 C 47.8125 34.066406 47.71875 34.050781 47.652344 34.015625 C 47.53125 33.949219 47.457031 33.855469 47.425781 33.734375 C 47.394531 33.617188 47.378906 33.460938 47.378906 33.269531 M 45.320312 32.257812 C 45.320312 32.035156 45.402344 31.859375 45.558594 31.722656 C 45.71875 31.589844 45.902344 31.519531 46.121094 31.519531 C 46.359375 31.519531 46.550781 31.566406 46.695312 31.652344 C 46.644531 31.773438 46.605469 31.894531 46.582031 32.015625 L 46.53125 32.015625 C 46.425781 31.792969 46.28125 31.679688 46.089844 31.679688 C 45.984375 31.679688 45.890625 31.710938 45.804688 31.765625 C 45.722656 31.824219 45.675781 31.90625 45.660156 32.015625 C 45.660156 32.054688 45.65625 32.089844 45.652344 32.117188 C 45.65625 32.246094 45.703125 32.347656 45.789062 32.417969 C 45.878906 32.488281 46.019531 32.554688 46.203125 32.617188 C 46.386719 32.679688 46.484375 32.710938 46.492188 32.714844 C 46.71875 32.828125 46.832031 33.011719 46.832031 33.253906 C 46.832031 33.484375 46.753906 33.675781 46.589844 33.828125 C 46.425781 33.984375 46.203125 34.066406 45.914062 34.078125 C 45.828125 34.078125 45.726562 34.0625 45.601562 34.03125 C 45.476562 34 45.375 33.957031 45.292969 33.90625 C 45.300781 33.867188 45.320312 33.8125 45.339844 33.738281 C 45.363281 33.667969 45.382812 33.59375 45.390625 33.527344 L 45.425781 33.527344 C 45.503906 33.648438 45.59375 33.742188 45.703125 33.808594 C 45.808594 33.875 45.914062 33.910156 46.015625 33.910156 C 46.160156 33.90625 46.273438 33.859375 46.359375 33.765625 C 46.445312 33.671875 46.492188 33.566406 46.492188 33.449219 C 46.492188 33.304688 46.449219 33.199219 46.371094 33.132812 C 46.289062 33.066406 46.171875 33.011719 46.015625 32.96875 C 45.835938 32.917969 45.703125 32.871094 45.617188 32.832031 C 45.535156 32.792969 45.464844 32.726562 45.402344 32.640625 C 45.347656 32.550781 45.320312 32.425781 45.320312 32.257812 M 44.523438 32.585938 C 44.523438 31.984375 44.316406 31.679688 43.898438 31.671875 C 43.671875 31.671875 43.503906 31.761719 43.386719 31.945312 C 43.273438 32.128906 43.203125 32.34375 43.183594 32.585938 Z M 42.746094 32.796875 C 42.753906 32.367188 42.871094 32.042969 43.089844 31.828125 C 43.308594 31.613281 43.582031 31.511719 43.898438 31.519531 C 44.296875 31.523438 44.570312 31.664062 44.71875 31.9375 C 44.867188 32.214844 44.933594 32.496094 44.914062 32.789062 C 44.59375 32.78125 44.015625 32.777344 43.183594 32.777344 C 43.15625 33.078125 43.226562 33.328125 43.386719 33.539062 C 43.542969 33.75 43.769531 33.851562 44.0625 33.851562 C 44.296875 33.851562 44.539062 33.734375 44.792969 33.492188 L 44.78125 33.761719 C 44.511719 33.972656 44.230469 34.078125 43.933594 34.078125 C 43.546875 34.078125 43.253906 33.953125 43.050781 33.703125 C 42.847656 33.453125 42.746094 33.152344 42.746094 32.796875 M 41.765625 34.035156 L 41.765625 30.128906 C 41.816406 30.128906 41.886719 30.136719 41.980469 30.148438 C 42.054688 30.136719 42.113281 30.128906 42.164062 30.128906 L 42.164062 34.035156 C 42.097656 34.027344 42.054688 34.023438 42.027344 34.023438 C 42.003906 34.019531 41.976562 34.019531 41.941406 34.015625 C 41.910156 34.019531 41.886719 34.019531 41.867188 34.023438 C 41.847656 34.023438 41.8125 34.027344 41.765625 34.035156 M 40.648438 30.394531 C 40.71875 30.394531 40.777344 30.417969 40.824219 30.46875 C 40.871094 30.519531 40.898438 30.582031 40.898438 30.660156 C 40.898438 30.730469 40.871094 30.792969 40.824219 30.84375 C 40.777344 30.894531 40.71875 30.917969 40.648438 30.917969 C 40.578125 30.917969 40.519531 30.894531 40.46875 30.839844 C 40.417969 30.789062 40.390625 30.726562 40.390625 30.660156 C 40.390625 30.585938 40.417969 30.523438 40.46875 30.472656 C 40.519531 30.417969 40.578125 30.394531 40.648438 30.394531 M 40.453125 34.035156 L 40.453125 31.546875 C 40.488281 31.550781 40.519531 31.554688 40.546875 31.554688 C 40.574219 31.554688 40.609375 31.5625 40.648438 31.566406 C 40.6875 31.5625 40.722656 31.554688 40.753906 31.554688 C 40.78125 31.554688 40.816406 31.550781 40.851562 31.546875 L 40.851562 34.035156 C 40.804688 34.027344 40.769531 34.023438 40.738281 34.023438 C 40.710938 34.019531 40.679688 34.019531 40.648438 34.015625 C 40.613281 34.019531 40.585938 34.019531 40.558594 34.023438 C 40.535156 34.023438 40.5 34.027344 40.453125 34.035156 M 36.355469 34.035156 L 36.355469 31.546875 C 36.40625 31.546875 36.480469 31.554688 36.582031 31.566406 C 36.660156 31.554688 36.71875 31.546875 36.757812 31.546875 L 36.757812 31.992188 C 36.941406 31.679688 37.191406 31.519531 37.5 31.519531 C 37.683594 31.519531 37.839844 31.566406 37.972656 31.660156 C 38.101562 31.753906 38.1875 31.875 38.226562 32.023438 C 38.421875 31.679688 38.683594 31.511719 39.011719 31.519531 C 39.289062 31.519531 39.492188 31.597656 39.625 31.753906 C 39.753906 31.910156 39.820312 32.15625 39.820312 32.492188 L 39.820312 34.035156 C 39.773438 34.027344 39.738281 34.023438 39.710938 34.023438 C 39.679688 34.019531 39.648438 34.019531 39.617188 34.015625 C 39.582031 34.019531 39.554688 34.019531 39.527344 34.023438 C 39.503906 34.023438 39.46875 34.027344 39.421875 34.035156 L 39.421875 32.585938 C 39.421875 32.316406 39.378906 32.113281 39.296875 31.980469 C 39.214844 31.847656 39.066406 31.78125 38.863281 31.78125 C 38.480469 31.78125 38.289062 32.046875 38.289062 32.574219 L 38.289062 34.035156 C 38.25 34.027344 38.214844 34.023438 38.1875 34.023438 C 38.160156 34.019531 38.125 34.019531 38.09375 34.015625 C 38.0625 34.019531 38.03125 34.019531 38 34.023438 C 37.972656 34.023438 37.933594 34.027344 37.890625 34.035156 L 37.890625 32.441406 C 37.890625 32 37.710938 31.78125 37.355469 31.78125 C 36.957031 31.78125 36.757812 32.007812 36.757812 32.460938 L 36.757812 34.035156 C 36.714844 34.027344 36.679688 34.023438 36.652344 34.023438 C 36.621094 34.019531 36.585938 34.019531 36.550781 34.015625 C 36.523438 34.019531 36.5 34.019531 36.480469 34.023438 C 36.457031 34.023438 36.417969 34.027344 36.355469 34.035156 M 33.566406 34.035156 L 33.566406 31.546875 C 33.621094 31.546875 33.683594 31.554688 33.742188 31.566406 C 33.859375 31.554688 33.933594 31.546875 33.964844 31.546875 L 33.964844 32.066406 C 34.023438 31.9375 34.117188 31.816406 34.238281 31.699219 C 34.359375 31.578125 34.488281 31.519531 34.621094 31.519531 C 34.679688 31.519531 34.730469 31.527344 34.773438 31.535156 L 34.710938 31.972656 C 34.640625 31.921875 34.5625 31.894531 34.476562 31.894531 C 34.304688 31.894531 34.175781 31.960938 34.09375 32.09375 C 34.007812 32.222656 33.964844 32.386719 33.964844 32.574219 L 33.964844 34.035156 C 33.90625 34.015625 33.835938 34.003906 33.761719 34.003906 C 33.691406 34.003906 33.625 34.015625 33.566406 34.035156 M 30.734375 33.152344 L 30.734375 31.546875 C 30.769531 31.550781 30.796875 31.554688 30.828125 31.554688 C 30.855469 31.554688 30.886719 31.5625 30.921875 31.566406 C 30.964844 31.5625 31.003906 31.554688 31.035156 31.554688 C 31.066406 31.554688 31.097656 31.550781 31.132812 31.546875 L 31.132812 33.011719 C 31.132812 33.242188 31.183594 33.4375 31.277344 33.589844 C 31.371094 33.746094 31.527344 33.824219 31.75 33.824219 C 31.980469 33.824219 32.140625 33.738281 32.226562 33.574219 C 32.316406 33.410156 32.359375 33.21875 32.359375 33 L 32.359375 31.546875 C 32.402344 31.546875 32.460938 31.554688 32.542969 31.566406 C 32.640625 31.554688 32.714844 31.546875 32.757812 31.546875 L 32.757812 34.035156 C 32.699219 34.027344 32.65625 34.023438 32.636719 34.023438 C 32.613281 34.019531 32.585938 34.019531 32.550781 34.015625 C 32.523438 34.019531 32.496094 34.019531 32.476562 34.023438 C 32.457031 34.023438 32.417969 34.027344 32.359375 34.035156 L 32.359375 33.589844 C 32.269531 33.75 32.164062 33.871094 32.042969 33.945312 C 31.917969 34.023438 31.765625 34.066406 31.574219 34.078125 C 31.238281 34.089844 31.015625 33.992188 30.902344 33.777344 C 30.789062 33.566406 30.734375 33.355469 30.734375 33.152344 M 27.09375 32.277344 C 27.09375 32.625 27.152344 32.921875 27.265625 33.167969 C 27.382812 33.414062 27.542969 33.601562 27.753906 33.726562 C 27.964844 33.851562 28.199219 33.917969 28.46875 33.921875 C 28.703125 33.925781 28.925781 33.859375 29.136719 33.722656 C 29.347656 33.589844 29.515625 33.394531 29.644531 33.140625 C 29.769531 32.886719 29.839844 32.605469 29.851562 32.300781 C 29.875 31.757812 29.761719 31.339844 29.515625 31.039062 C 29.269531 30.742188 28.929688 30.582031 28.496094 30.566406 C 28.1875 30.5625 27.929688 30.636719 27.71875 30.792969 C 27.507812 30.949219 27.351562 31.160156 27.25 31.421875 C 27.144531 31.683594 27.09375 31.972656 27.09375 32.277344 M 26.605469 32.257812 C 26.597656 31.9375 26.664062 31.632812 26.808594 31.347656 C 26.953125 31.066406 27.164062 30.835938 27.441406 30.660156 C 27.71875 30.480469 28.042969 30.394531 28.40625 30.394531 L 28.445312 30.394531 C 28.765625 30.398438 29.046875 30.449219 29.292969 30.550781 C 29.539062 30.648438 29.738281 30.78125 29.890625 30.949219 C 30.042969 31.117188 30.15625 31.300781 30.230469 31.511719 C 30.304688 31.71875 30.339844 31.941406 30.339844 32.175781 C 30.339844 32.5625 30.257812 32.902344 30.089844 33.195312 C 29.925781 33.488281 29.695312 33.710938 29.40625 33.867188 C 29.117188 34.019531 28.800781 34.097656 28.457031 34.097656 L 28.4375 34.097656 C 27.933594 34.089844 27.507812 33.941406 27.152344 33.644531 C 26.800781 33.351562 26.617188 32.890625 26.605469 32.257812 M 58.800781 24.828125 L 58.6875 24.65625 L 58.691406 24.894531 Z M 72.265625 22.410156 C 71.644531 22.410156 71.324219 22.039062 71.324219 21.371094 L 70.769531 21.371094 C 70.789062 22.085938 71.28125 22.109375 71.488281 22.410156 L 70.824219 22.410156 L 70.824219 22.925781 L 73.929688 22.925781 L 73.929688 22.410156 Z M 73.925781 16.53125 C 73.925781 15.949219 73.503906 15.878906 73.207031 15.609375 L 73.871094 15.609375 L 73.871094 15.148438 L 70.824219 15.148438 L 70.824219 15.609375 L 72.15625 15.609375 C 72.703125 15.609375 73.539062 15.886719 73.539062 16.417969 L 73.539062 16.589844 C 73.539062 17.175781 71.433594 17.050781 70.824219 17.050781 L 70.824219 17.511719 L 73.152344 17.511719 C 73.480469 17.511719 73.929688 17.175781 73.929688 16.820312 Z M 72.488281 21.023438 C 73.390625 21.023438 73.984375 20.582031 73.984375 19.644531 C 73.984375 18.851562 73.335938 18.316406 72.597656 18.316406 L 72.375 18.316406 C 71.464844 18.316406 70.769531 18.75 70.769531 19.699219 L 70.769531 19.929688 C 70.769531 20.535156 71.507812 21.023438 72.15625 21.023438 Z M 71.046875 19.585938 C 71.046875 19.078125 71.695312 18.894531 72.210938 18.894531 L 72.710938 18.894531 C 73.289062 18.894531 73.707031 19.15625 73.707031 19.757812 C 73.707031 20.253906 73.097656 20.507812 72.597656 20.507812 L 72.15625 20.507812 C 71.691406 20.507812 71.046875 20.285156 71.046875 19.816406 Z M 70.769531 12.730469 C 70.769531 13.171875 71.164062 13.3125 71.324219 13.535156 L 70.824219 13.535156 L 70.824219 14.054688 L 75.257812 14.054688 L 75.257812 13.535156 L 73.375 13.535156 C 73.59375 13.339844 73.984375 13.25 73.984375 12.730469 C 73.984375 12.007812 73.398438 11.578125 72.710938 11.578125 L 72.210938 11.578125 C 71.414062 11.578125 70.769531 11.890625 70.769531 12.730469 M 71.101562 12.789062 C 71.101562 12.238281 71.875 12.097656 72.433594 12.097656 L 72.597656 12.097656 C 73.070312 12.097656 73.652344 12.316406 73.652344 12.789062 C 73.652344 13.207031 72.960938 13.535156 72.542969 13.535156 L 72.097656 13.535156 C 71.699219 13.535156 71.101562 13.203125 71.101562 12.789062 M 69.71875 25.289062 C 69.71875 24.835938 70.210938 24.492188 70.660156 24.480469 L 70.660156 23.847656 C 69.855469 24.042969 69.382812 24.441406 69.382812 25.460938 C 69.382812 26.636719 70.40625 27.191406 71.546875 27.191406 L 71.765625 27.191406 C 72.710938 27.191406 73.929688 26.578125 73.929688 25.691406 L 73.929688 24.886719 C 73.929688 24.578125 73.695312 23.90625 73.429688 23.90625 L 71.433594 23.90625 L 71.433594 25.519531 L 71.765625 25.519531 L 71.765625 24.480469 L 73.265625 24.480469 C 73.488281 24.480469 73.597656 24.863281 73.597656 25.117188 L 73.597656 25.519531 C 73.597656 26.171875 72.597656 26.554688 71.933594 26.554688 L 71.378906 26.554688 C 70.640625 26.554688 69.71875 26.238281 69.71875 25.519531 Z M 33.738281 11.980469 C 34.570312 11.980469 35.523438 12.410156 35.523438 13.246094 C 35.523438 14.109375 34.898438 16.203125 34.660156 17.015625 C 34.316406 18.210938 34.105469 19.628906 33.710938 20.753906 C 32.996094 22.8125 32.832031 26.5 30.203125 26.5 C 29.214844 26.5 28.707031 26.09375 28.707031 25.058594 L 28.707031 24.65625 L 26.601562 24.65625 L 26.601562 25.578125 C 26.601562 26.929688 28.261719 27.421875 29.652344 27.421875 C 33.621094 27.421875 34.679688 24.683594 35.511719 21.300781 C 35.914062 19.671875 36.367188 18.09375 36.757812 16.488281 C 36.925781 15.78125 37.132812 14.753906 37.371094 14.070312 C 37.488281 13.734375 37.957031 11.902344 37.964844 11.578125 L 33.800781 11.578125 Z M 49.644531 17.210938 C 50.25 16.414062 50.765625 15.519531 50.765625 14.113281 L 50.765625 14.054688 C 50.765625 12.308594 49.03125 11.578125 47.328125 11.578125 L 40.296875 11.578125 L 40.222656 11.980469 C 40.804688 12.03125 42.007812 12.332031 42.007812 12.960938 L 42.007812 13.304688 C 42.007812 14.039062 41.316406 15.992188 41.144531 16.84375 C 40.910156 17.996094 40.515625 19.191406 40.246094 20.289062 C 39.679688 22.601562 38.972656 24.910156 38.460938 27.191406 L 42.121094 27.191406 C 44.324219 27.191406 45.917969 26.941406 47.285156 26.050781 C 48.328125 25.367188 49.546875 23.65625 49.546875 21.949219 L 49.546875 21.140625 C 49.546875 20 48.132812 18.988281 47.050781 18.894531 L 47.050781 18.777344 C 47.941406 18.757812 49.21875 17.777344 49.644531 17.210938 M 42.675781 18.433594 C 42.9375 17.253906 43.277344 16.203125 43.539062 15.011719 C 43.632812 14.574219 43.859375 13.734375 44.003906 13.363281 C 44.226562 12.796875 44.457031 12.5 45.222656 12.5 L 46.21875 12.5 C 47.265625 12.5 48.492188 13.015625 48.492188 13.996094 L 48.492188 14.628906 C 48.492188 16.71875 46.648438 18.433594 44.667969 18.433594 Z M 42.785156 26.269531 L 42.007812 26.269531 C 41.605469 26.269531 40.898438 26.179688 40.898438 25.804688 L 40.898438 25.519531 C 40.898438 25.152344 41.492188 22.886719 41.632812 22.417969 C 41.761719 21.976562 42.394531 19.730469 42.394531 19.355469 L 43.949219 19.355469 C 45.402344 19.355469 47.328125 19.976562 47.328125 21.371094 L 47.328125 21.773438 C 47.328125 24.5 45.398438 26.269531 42.785156 26.269531 M 58.800781 24.828125 L 58.691406 24.894531 L 58.6875 24.65625 L 57.738281 11.578125 L 52.816406 11.578125 L 52.753906 11.980469 C 53.347656 11.980469 54.589844 12.351562 54.589844 12.960938 L 54.589844 13.191406 C 54.589844 13.84375 53.925781 15.992188 53.746094 16.75 C 53.488281 17.839844 53.140625 19.160156 52.824219 20.230469 C 52.496094 21.347656 52.203125 22.617188 51.929688 23.734375 C 51.796875 24.265625 51.65625 24.964844 51.484375 25.460938 C 51.417969 25.65625 51.054688 27.042969 51.039062 27.191406 L 52.261719 27.191406 L 52.261719 27.015625 C 52.261719 26.785156 53.074219 23.839844 53.191406 23.4375 C 53.527344 22.300781 53.816406 21.03125 54.101562 19.886719 C 54.296875 19.105469 55.777344 12.9375 55.972656 12.789062 L 56.890625 27.1875 L 58.523438 27.191406 C 58.792969 27.191406 60.425781 24.082031 60.707031 23.640625 C 61.449219 22.492188 62.109375 21.210938 62.8125 20.011719 C 63.277344 19.214844 66.878906 12.921875 67.058594 12.789062 L 63.34375 27.191406 L 65.339844 27.191406 L 69.316406 11.589844 L 66.558594 11.578125 Z M 58.800781 24.828125 " fill-opacity="1" fill-rule="nonzero"/></g><g clip-path="url(#581b89fefa)"><path fill="#0071bb" d="M 81.894531 6.65625 C 82.78125 6.785156 83.496094 7.523438 83.496094 8.300781 C 83.496094 9.078125 82.78125 9.601562 81.894531 9.472656 C 81.007812 9.339844 80.289062 8.601562 80.289062 7.824219 C 80.289062 7.046875 81.007812 6.523438 81.894531 6.65625 M 86.246094 9.8125 C 86.292969 9.832031 86.339844 9.855469 86.386719 9.875 C 90.4375 10.472656 93.558594 14.09375 93.558594 18.476562 C 93.558594 23.269531 89.820312 27.160156 85.210938 27.160156 C 84.070312 27.160156 82.984375 26.921875 81.992188 26.492188 C 81.539062 26.535156 81.085938 26.558594 80.628906 26.570312 C 80.960938 26.5 81.296875 26.414062 81.632812 26.324219 C 78.816406 24.929688 76.863281 21.9375 76.863281 18.476562 C 76.863281 14.566406 79.347656 11.261719 82.761719 10.171875 C 83.066406 9.957031 83.375 9.757812 83.6875 9.5625 C 86.15625 8.058594 89.148438 7.929688 91.9375 8.0625 C 89.878906 8.367188 87.972656 8.792969 86.246094 9.8125 " fill-opacity="1" fill-rule="nonzero"/></g><g clip-path="url(#257b8df52e)"><g clip-path="url(#def2b06780)"><path fill="#ffffff" d="M 78.601562 23.773438 C 78.277344 23.339844 77.996094 22.875 77.753906 22.382812 C 79.464844 18.566406 82.402344 15.773438 86.277344 14.847656 C 82.273438 16.9375 79.808594 19.996094 78.601562 23.773438 " fill-opacity="1" fill-rule="nonzero"/></g></g><g clip-path="url(#9eb73ee01c)"><g clip-path="url(#2a04fb5cae)"><path fill="#ffffff" d="M 85.773438 9.84375 C 88.382812 10.816406 90.742188 13.335938 91.136719 17.058594 C 91.351562 19.085938 90.746094 20.925781 89.75 22.273438 C 87.917969 24.757812 85.882812 25.628906 82.375 26.246094 C 84.800781 25.53125 87.410156 23.785156 88.484375 21.371094 C 89.132812 19.917969 89.386719 18.175781 88.691406 16.117188 C 87.792969 13.464844 85.671875 12.015625 83.210938 11.59375 C 81.816406 12.519531 80.164062 14.113281 79.320312 16.636719 C 79.601562 14.671875 79.824219 12.085938 83.726562 9.703125 C 85.472656 8.632812 88.179688 8.265625 90.1875 8.195312 C 88.25 8.511719 86.71875 9.304688 85.773438 9.84375 " fill-opacity="1" fill-rule="nonzero"/></g></g><g clip-path="url(#f98d6245d3)"><path fill="#0071bb" d="M 81.894531 6.65625 C 82.78125 6.785156 83.496094 7.523438 83.496094 8.304688 C 83.496094 9.085938 82.78125 9.613281 81.894531 9.480469 C 81.007812 9.347656 80.289062 8.609375 80.289062 7.828125 C 80.289062 7.050781 81.007812 6.523438 81.894531 6.65625 M 86.246094 9.824219 C 86.292969 9.84375 86.339844 9.867188 86.386719 9.886719 C 90.4375 10.484375 93.558594 14.117188 93.558594 18.515625 C 93.558594 23.324219 89.820312 27.226562 85.210938 27.226562 C 84.070312 27.226562 82.984375 26.988281 81.992188 26.554688 C 81.539062 26.597656 81.085938 26.625 80.628906 26.636719 C 80.960938 26.5625 81.296875 26.480469 81.632812 26.386719 C 78.816406 24.988281 76.863281 21.988281 76.863281 18.515625 C 76.863281 14.59375 79.347656 11.273438 82.761719 10.183594 C 83.066406 9.96875 83.375 9.765625 83.6875 9.574219 C 86.15625 8.0625 89.148438 7.933594 91.9375 8.066406 C 89.878906 8.375 87.972656 8.800781 86.246094 9.824219 " fill-opacity="1" fill-rule="nonzero"/></g><g clip-path="url(#7e165ee197)"><g clip-path="url(#cb10f15a0a)"><path fill="#ffffff" d="M 78.601562 23.832031 C 78.277344 23.394531 77.996094 22.925781 77.753906 22.433594 C 79.464844 18.605469 82.402344 15.804688 86.277344 14.875 C 82.273438 16.972656 79.808594 20.039062 78.601562 23.832031 " fill-opacity="1" fill-rule="nonzero"/></g></g><g clip-path="url(#6d3264e35c)"><g clip-path="url(#bb97fb2292)"><path fill="#ffffff" d="M 85.773438 9.851562 C 88.382812 10.828125 90.742188 13.355469 91.136719 17.09375 C 91.351562 19.128906 90.746094 20.972656 89.75 22.324219 C 87.917969 24.816406 85.882812 25.691406 82.375 26.3125 C 84.800781 25.59375 87.410156 23.839844 88.484375 21.421875 C 89.132812 19.960938 89.386719 18.214844 88.691406 16.148438 C 87.792969 13.488281 85.671875 12.035156 83.210938 11.609375 C 81.816406 12.539062 80.164062 14.140625 79.320312 16.671875 C 79.601562 14.695312 79.824219 12.105469 83.726562 9.710938 C 85.472656 8.640625 88.179688 8.269531 90.1875 8.203125 C 88.25 8.515625 86.71875 9.3125 85.773438 9.851562 " fill-opacity="1" fill-rule="nonzero"/></g></g></svg>