<svg xmlns="http://www.w3.org/2000/svg" xmlns:xlink="http://www.w3.org/1999/xlink" width="160" zoomAndPan="magnify" viewBox="0 0 120 41.25" height="55" preserveAspectRatio="xMidYMid meet" version="1.0"><metadata><ContainsAiGeneratedContent>Yes</ContainsAiGeneratedContent></metadata><defs><clipPath id="f687ce15d8"><path d="M 1.070312 0 L 118.925781 0 L 118.925781 40.511719 L 1.070312 40.511719 Z M 1.070312 0 " clip-rule="nonzero"/></clipPath><clipPath id="e3dfa936f9"><path d="M 105 15 L 110.792969 15 L 110.792969 27 L 105 27 Z M 105 15 " clip-rule="nonzero"/></clipPath><clipPath id="751e754d92"><path d="M 9.140625 5 L 41 5 L 41 35.84375 L 9.140625 35.84375 Z M 9.140625 5 " clip-rule="nonzero"/></clipPath><clipPath id="b7fffec7a7"><path d="M 17 22 L 33 22 L 33 35.84375 L 17 35.84375 Z M 17 22 " clip-rule="nonzero"/></clipPath></defs><g clip-path="url(#f687ce15d8)"><path fill="#ffffff" d="M 1.070312 0 L 118.929688 0 L 118.929688 40.511719 L 1.070312 40.511719 Z M 1.070312 0 " fill-opacity="1" fill-rule="nonzero"/><path fill="#ffffff" d="M 1.070312 0 L 118.929688 0 L 118.929688 40.511719 L 1.070312 40.511719 Z M 1.070312 0 " fill-opacity="1" fill-rule="nonzero"/></g><path fill="#000000" d="M 53.464844 17.765625 C 53.476562 17.089844 53.429688 16.414062 53.121094 16.03125 C 52.808594 15.65625 52.105469 15.523438 51.792969 15.523438 C 50.550781 15.523438 50.058594 16.28125 50.007812 16.445312 C 49.960938 16.578125 49.667969 16.875 49.667969 18.921875 L 49.667969 22.105469 C 49.667969 25.027344 50.617188 25.375 51.773438 25.375 C 52.234375 25.375 53.625 25.210938 53.644531 22.882812 L 55.195312 22.882812 C 55.261719 26.648438 52.628906 26.648438 51.859375 26.648438 C 50.386719 26.648438 48.128906 26.546875 48.128906 21.925781 L 48.128906 18.558594 C 48.128906 15.191406 49.597656 14.230469 51.921875 14.230469 C 54.265625 14.230469 55.164062 15.457031 55.015625 17.765625 Z M 53.464844 17.765625 " fill-opacity="1" fill-rule="nonzero"/><path fill="#000000" d="M 56.507812 22.351562 C 56.507812 19.914062 56.785156 17.898438 59.648438 17.898438 C 62.511719 17.898438 62.792969 19.914062 62.792969 22.351562 C 62.792969 26.03125 61.398438 26.5625 59.648438 26.5625 C 57.894531 26.5625 56.507812 26.03125 56.507812 22.351562 M 61.382812 21.777344 C 61.382812 19.5 60.679688 19.003906 59.648438 19.003906 C 58.617188 19.003906 57.914062 19.5 57.914062 21.777344 C 57.914062 24.484375 58.257812 25.457031 59.648438 25.457031 C 61.039062 25.457031 61.382812 24.484375 61.382812 21.777344 " fill-opacity="1" fill-rule="nonzero"/><path fill="#000000" d="M 68.816406 18.0625 L 70.15625 18.0625 L 70.15625 27.238281 C 70.15625 29.105469 68.929688 29.550781 67.109375 29.550781 C 65.738281 29.550781 64.492188 28.855469 64.609375 27.320312 L 66.113281 27.320312 C 66.128906 28.101562 66.636719 28.527344 67.375 28.527344 C 68.304688 28.527344 68.816406 27.949219 68.816406 27.089844 L 68.816406 25.355469 L 68.765625 25.355469 C 68.421875 26.019531 67.667969 26.398438 66.949219 26.398438 C 64.707031 26.398438 64.261719 24.453125 64.261719 21.972656 C 64.261719 18.144531 66.179688 17.898438 66.847656 17.898438 C 67.71875 17.898438 68.402344 18.277344 68.78125 19.085938 L 68.816406 19.085938 Z M 67.242188 19.019531 C 65.722656 19.019531 65.671875 20.867188 65.671875 21.972656 C 65.671875 24.648438 66.277344 25.273438 67.277344 25.273438 C 68.894531 25.273438 68.84375 23.34375 68.84375 22.1875 C 68.84375 20.949219 68.929688 19.019531 67.242188 19.019531 " fill-opacity="1" fill-rule="nonzero"/><path fill="#000000" d="M 76.816406 26.398438 L 76.816406 20.621094 C 76.816406 19.730469 76.507812 19.003906 75.363281 19.003906 C 73.886719 19.003906 73.675781 20.324219 73.675781 21.460938 L 73.675781 26.398438 L 72.332031 26.398438 L 72.332031 19.796875 C 72.332031 19.21875 72.300781 18.640625 72.25 18.0625 L 73.675781 18.0625 L 73.675781 19.136719 L 73.742188 19.136719 C 74.261719 18.195312 74.886719 17.898438 75.949219 17.898438 C 77.714844 17.898438 78.160156 18.96875 78.160156 20.621094 L 78.160156 26.398438 Z M 76.816406 26.398438 " fill-opacity="1" fill-rule="nonzero"/><path fill="#000000" d="M 80.53125 14.480469 L 82.039062 14.480469 L 82.039062 15.933594 L 80.53125 15.933594 Z M 81.957031 26.398438 L 80.613281 26.398438 L 80.613281 18.0625 L 81.957031 18.0625 Z M 81.957031 26.398438 " fill-opacity="1" fill-rule="nonzero"/><path fill="#000000" d="M 89.222656 25.292969 L 89.222656 26.398438 L 84 26.398438 L 84 25.128906 L 87.601562 19.203125 L 87.601562 19.167969 L 84.179688 19.167969 L 84.179688 18.0625 L 89.105469 18.0625 L 89.105469 19.300781 L 85.457031 25.292969 Z M 89.222656 25.292969 " fill-opacity="1" fill-rule="nonzero"/><path fill="#000000" d="M 95.046875 25.191406 L 95.011719 25.191406 C 94.605469 26.148438 93.96875 26.5625 92.9375 26.5625 C 91.183594 26.5625 90.679688 25.421875 90.679688 23.824219 C 90.679688 21.296875 93.132812 21.183594 95.011719 21.230469 C 95.046875 20.128906 95.0625 18.921875 93.621094 18.921875 C 92.722656 18.921875 92.25 19.53125 92.332031 20.40625 L 90.875 20.40625 C 90.9375 18.539062 91.921875 17.898438 93.671875 17.898438 C 95.800781 17.898438 96.355469 19.003906 96.355469 20.40625 L 96.355469 24.417969 C 96.363281 25.082031 96.417969 25.742188 96.519531 26.398438 L 95.046875 26.398438 Z M 92.019531 23.921875 C 92.019531 24.730469 92.414062 25.457031 93.3125 25.457031 C 94.128906 25.457031 95.144531 24.945312 95.011719 22.253906 C 93.738281 22.273438 92.019531 22.15625 92.019531 23.921875 " fill-opacity="1" fill-rule="nonzero"/><path fill="#000000" d="M 103.015625 26.398438 L 103.015625 20.621094 C 103.015625 19.730469 102.707031 19.003906 101.5625 19.003906 C 100.085938 19.003906 99.875 20.324219 99.875 21.460938 L 99.875 26.398438 L 98.53125 26.398438 L 98.53125 19.796875 C 98.53125 19.21875 98.5 18.640625 98.453125 18.0625 L 99.875 18.0625 L 99.875 19.136719 L 99.941406 19.136719 C 100.464844 18.195312 101.085938 17.898438 102.152344 17.898438 C 103.917969 17.898438 104.359375 18.96875 104.359375 20.621094 L 104.359375 26.398438 Z M 103.015625 26.398438 " fill-opacity="1" fill-rule="nonzero"/><g clip-path="url(#e3dfa936f9)"><path fill="#000000" d="M 107.011719 18.0625 L 107.011719 16.460938 L 108.351562 15.851562 L 108.351562 18.0625 L 110.152344 18.0625 L 110.152344 19.085938 L 108.351562 19.085938 L 108.351562 24.183594 C 108.351562 24.714844 108.351562 25.390625 109.582031 25.390625 C 109.679688 25.390625 109.890625 25.355469 110.183594 25.324219 L 110.183594 26.363281 C 109.742188 26.398438 109.300781 26.496094 108.859375 26.496094 C 107.582031 26.496094 107.011719 25.96875 107.011719 25.007812 L 107.011719 19.085938 L 105.652344 19.085938 L 105.652344 18.0625 Z M 107.011719 18.0625 " fill-opacity="1" fill-rule="nonzero"/></g><g clip-path="url(#751e754d92)"><path fill="#010101" d="M 24.960938 5.035156 C 23.964844 5.035156 22.972656 5.132812 21.996094 5.332031 C 21.015625 5.527344 20.0625 5.820312 19.140625 6.203125 C 18.21875 6.589844 17.34375 7.0625 16.511719 7.621094 C 15.679688 8.179688 14.914062 8.816406 14.207031 9.53125 C 13.5 10.242188 12.871094 11.015625 12.316406 11.855469 C 11.761719 12.691406 11.292969 13.574219 10.910156 14.507812 C 10.527344 15.4375 10.238281 16.394531 10.042969 17.382812 C 9.847656 18.371094 9.75 19.367188 9.75 20.375 C 9.75 21.382812 9.847656 22.382812 10.042969 23.367188 C 10.238281 24.355469 10.527344 25.316406 10.910156 26.246094 C 11.292969 27.175781 11.761719 28.0625 12.316406 28.898438 C 12.871094 29.734375 13.5 30.511719 14.207031 31.222656 C 14.914062 31.933594 15.683594 32.570312 16.511719 33.128906 C 17.34375 33.691406 18.21875 34.164062 19.140625 34.546875 C 20.066406 34.933594 21.015625 35.222656 21.996094 35.421875 C 22.976562 35.617188 23.964844 35.714844 24.964844 35.714844 C 25.960938 35.714844 26.949219 35.617188 27.929688 35.421875 C 28.910156 35.222656 29.859375 34.933594 30.785156 34.546875 C 31.707031 34.164062 32.582031 33.691406 33.414062 33.128906 C 34.246094 32.570312 35.011719 31.933594 35.71875 31.222656 C 36.425781 30.511719 37.054688 29.734375 37.609375 28.898438 C 38.164062 28.0625 38.632812 27.175781 39.015625 26.246094 C 39.398438 25.316406 39.6875 24.355469 39.882812 23.367188 C 40.078125 22.382812 40.175781 21.382812 40.175781 20.375 C 40.175781 19.367188 40.078125 18.371094 39.882812 17.382812 C 39.6875 16.394531 39.398438 15.4375 39.015625 14.503906 C 38.632812 13.574219 38.164062 12.691406 37.609375 11.851562 C 37.054688 11.015625 36.425781 10.242188 35.71875 9.527344 C 35.011719 8.816406 34.246094 8.179688 33.414062 7.621094 C 32.582031 7.0625 31.707031 6.589844 30.785156 6.203125 C 29.859375 5.816406 28.910156 5.527344 27.929688 5.332031 C 26.949219 5.132812 25.960938 5.035156 24.960938 5.035156 " fill-opacity="1" fill-rule="nonzero"/></g><g clip-path="url(#b7fffec7a7)"><path fill="#50b2ce" d="M 26.148438 29.160156 C 26.148438 29.890625 25.839844 30.71875 24.964844 30.71875 C 24.089844 30.71875 23.828125 29.890625 23.828125 29.160156 L 23.828125 26.957031 C 21.453125 25.855469 19.273438 24.449219 17.285156 22.738281 L 17.285156 28.902344 C 17.285156 33.371094 20.789062 35.609375 24.964844 35.609375 C 29.011719 35.609375 32.5625 33.457031 32.691406 29.148438 C 30.632812 29.105469 28.398438 28.683594 26.148438 27.898438 Z M 26.148438 29.160156 " fill-opacity="1" fill-rule="nonzero"/></g><path fill="#50b2ce" d="M 30.269531 23.765625 L 26.148438 23.765625 C 27.132812 24.292969 28.082031 24.582031 28.953125 24.582031 C 29.910156 24.582031 30.277344 24.257812 30.269531 23.765625 " fill-opacity="1" fill-rule="nonzero"/><path fill="#50b2ce" d="M 20.886719 15.640625 C 18.203125 15.640625 20.140625 18.285156 21.964844 20.3125 C 22.546875 20.960938 23.167969 21.570312 23.828125 22.144531 L 23.828125 16.574219 C 23.675781 16.484375 23.523438 16.398438 23.363281 16.320312 C 22.503906 15.863281 21.679688 15.636719 20.886719 15.640625 " fill-opacity="1" fill-rule="nonzero"/><path fill="#50b2ce" d="M 23.828125 11.585938 C 23.828125 10.863281 24.089844 10.027344 24.964844 10.027344 C 25.839844 10.027344 26.148438 10.863281 26.148438 11.585938 L 26.148438 13.261719 C 27.511719 13.90625 28.804688 14.671875 30.027344 15.558594 L 32.699219 15.558594 L 32.699219 11.847656 C 32.699219 7.378906 29.089844 5.144531 24.964844 5.144531 C 21.039062 5.144531 17.703125 7.121094 17.320312 11.074219 C 19.554688 11.152344 21.722656 11.566406 23.828125 12.316406 Z M 23.828125 11.585938 " fill-opacity="1" fill-rule="nonzero"/><path fill="#6ab345" d="M 36.675781 22.019531 L 29.445312 22.03125 C 29.929688 22.683594 30.265625 23.296875 30.269531 23.765625 L 32.699219 23.765625 L 32.699219 28.902344 C 32.699219 28.988281 32.695312 29.066406 32.691406 29.148438 C 32.820312 29.152344 32.945312 29.152344 33.074219 29.152344 C 35.585938 29.148438 37.488281 28.65625 38.277344 27.542969 C 39.070312 26.398438 38.691406 24.601562 36.675781 22.019531 " fill-opacity="1" fill-rule="nonzero"/><path fill="#6ab345" d="M 17.320312 11.074219 C 17.132812 11.066406 16.949219 11.066406 16.765625 11.066406 C 10.792969 11.074219 9.523438 14.464844 14.773438 20.289062 C 15.558594 21.160156 16.394531 21.976562 17.285156 22.738281 L 17.285156 11.847656 C 17.285156 11.582031 17.296875 11.324219 17.320312 11.074219 " fill-opacity="1" fill-rule="nonzero"/><path fill="#6ab345" d="M 26.148438 13.261719 C 25.390625 12.90625 24.621094 12.589844 23.828125 12.316406 L 23.828125 16.574219 C 24.527344 16.988281 25.152344 17.492188 25.714844 18.078125 L 32.976562 18.070312 C 32.058594 17.15625 31.074219 16.316406 30.027344 15.558594 L 26.148438 15.558594 Z M 26.148438 13.261719 " fill-opacity="1" fill-rule="nonzero"/><path fill="#6ab345" d="M 26.148438 27.898438 L 26.148438 23.765625 C 25.316406 23.308594 24.542969 22.769531 23.828125 22.144531 L 23.828125 26.957031 C 24.601562 27.3125 25.375 27.625 26.148438 27.898438 " fill-opacity="1" fill-rule="nonzero"/><path fill="#74cbf1" d="M 23.828125 22.144531 C 23.167969 21.570312 22.546875 20.960938 21.964844 20.3125 C 20.140625 18.285156 18.203125 15.640625 20.886719 15.640625 C 21.679688 15.636719 22.503906 15.863281 23.363281 16.320312 C 23.523438 16.398438 23.675781 16.484375 23.828125 16.574219 L 23.828125 12.316406 C 21.722656 11.566406 19.554688 11.152344 17.320312 11.074219 C 17.296875 11.324219 17.28125 11.582031 17.28125 11.847656 L 17.28125 22.738281 C 19.273438 24.449219 21.453125 25.855469 23.828125 26.957031 Z M 23.828125 22.144531 " fill-opacity="1" fill-rule="nonzero"/><path fill="#74cbf1" d="M 26.148438 15.558594 L 30.027344 15.558594 C 28.804688 14.671875 27.511719 13.90625 26.148438 13.261719 Z M 26.148438 15.558594 " fill-opacity="1" fill-rule="nonzero"/><path fill="#74cbf1" d="M 32.699219 23.765625 L 30.273438 23.765625 C 30.277344 24.257812 29.910156 24.582031 28.953125 24.582031 C 28.082031 24.582031 27.132812 24.292969 26.148438 23.765625 L 26.148438 27.898438 C 28.398438 28.683594 30.632812 29.105469 32.691406 29.152344 C 32.695312 29.066406 32.699219 28.988281 32.699219 28.902344 Z M 32.699219 23.765625 " fill-opacity="1" fill-rule="nonzero"/><path fill="#ffffff" d="M 41.488281 30.460938 C 41.339844 30.609375 41.164062 30.71875 40.964844 30.789062 C 40.761719 30.859375 40.558594 30.878906 40.347656 30.851562 C 40.140625 30.824219 39.945312 30.75 39.769531 30.632812 C 39.59375 30.511719 39.453125 30.363281 39.347656 30.175781 C 39.242188 29.992188 39.179688 29.792969 39.167969 29.582031 C 39.152344 29.367188 39.1875 29.164062 39.265625 28.964844 C 39.347656 28.769531 39.46875 28.601562 39.625 28.457031 C 39.785156 28.316406 39.96875 28.21875 40.171875 28.164062 C 40.375 28.109375 40.582031 28.101562 40.789062 28.144531 C 40.996094 28.183594 41.183594 28.269531 41.351562 28.398438 C 41.519531 28.527344 41.652344 28.6875 41.746094 28.878906 C 41.839844 29.070312 41.886719 29.273438 41.886719 29.488281 C 41.894531 29.871094 41.761719 30.195312 41.488281 30.460938 M 39.699219 28.652344 C 39.464844 28.882812 39.351562 29.160156 39.359375 29.488281 C 39.351562 29.816406 39.464844 30.097656 39.695312 30.328125 C 39.804688 30.441406 39.933594 30.527344 40.078125 30.585938 C 40.21875 30.648438 40.371094 30.675781 40.523438 30.675781 C 40.679688 30.675781 40.828125 30.648438 40.972656 30.585938 C 41.117188 30.527344 41.242188 30.441406 41.351562 30.328125 C 41.585938 30.097656 41.699219 29.816406 41.695312 29.488281 C 41.695312 29.25 41.628906 29.03125 41.5 28.832031 C 41.367188 28.632812 41.191406 28.488281 40.972656 28.394531 C 40.753906 28.304688 40.53125 28.28125 40.296875 28.328125 C 40.066406 28.375 39.867188 28.484375 39.699219 28.652344 M 40.5 28.730469 C 40.636719 28.722656 40.773438 28.742188 40.90625 28.785156 C 41.078125 28.855469 41.15625 28.980469 41.136719 29.167969 C 41.148438 29.292969 41.097656 29.394531 40.992188 29.464844 C 40.925781 29.503906 40.851562 29.527344 40.777344 29.535156 C 40.882812 29.546875 40.96875 29.597656 41.03125 29.683594 C 41.085938 29.753906 41.109375 29.832031 41.113281 29.917969 L 41.113281 30.027344 C 41.113281 30.0625 41.117188 30.097656 41.117188 30.140625 C 41.117188 30.164062 41.121094 30.191406 41.128906 30.21875 L 41.140625 30.234375 L 40.894531 30.234375 C 40.890625 30.230469 40.890625 30.226562 40.890625 30.222656 C 40.890625 30.214844 40.886719 30.210938 40.886719 30.203125 L 40.878906 30.15625 L 40.878906 30.035156 C 40.898438 29.894531 40.851562 29.777344 40.738281 29.691406 C 40.644531 29.652344 40.546875 29.636719 40.445312 29.644531 L 40.238281 29.644531 L 40.238281 30.234375 L 39.976562 30.234375 L 39.976562 28.730469 Z M 40.78125 28.96875 C 40.679688 28.921875 40.574219 28.902344 40.464844 28.910156 L 40.238281 28.910156 L 40.238281 29.457031 L 40.476562 29.457031 C 40.5625 29.460938 40.648438 29.449219 40.726562 29.421875 C 40.816406 29.382812 40.867188 29.308594 40.882812 29.210938 C 40.894531 29.113281 40.859375 29.03125 40.785156 28.96875 " fill-opacity="1" fill-rule="nonzero"/></svg>