<svg xmlns="http://www.w3.org/2000/svg" xmlns:xlink="http://www.w3.org/1999/xlink" width="80" zoomAndPan="magnify" viewBox="0 0 60 60" height="80" preserveAspectRatio="xMidYMid meet" version="1.0"><defs><clipPath id="cdc0661523"><path d="M 30 0 C 13.429688 0 0 13.429688 0 30 C 0 46.570312 13.429688 60 30 60 C 46.570312 60 60 46.570312 60 30 C 60 13.429688 46.570312 0 30 0 Z M 30 0 " clip-rule="nonzero"/></clipPath><clipPath id="fcd90c8973"><path d="M 14.308594 9.078125 L 45.808594 9.078125 L 45.808594 51 L 14.308594 51 Z M 14.308594 9.078125 " clip-rule="nonzero"/></clipPath></defs><rect x="-6" width="72" fill="#ffffff" y="-6" height="72" fill-opacity="1"/><rect x="-6" width="72" fill="#ffffff" y="-6" height="72" fill-opacity="1"/><g clip-path="url(#cdc0661523)"><rect x="-6" width="72" fill="#ffe890" y="-6" height="72" fill-opacity="1"/></g><g clip-path="url(#fcd90c8973)"><path fill="#ffca00" d="M 36.914062 43.941406 C 36.625 44.191406 36.1875 44.152344 35.941406 43.867188 L 34.585938 42.289062 C 34.335938 41.996094 33.898438 41.960938 33.605469 42.210938 C 33.3125 42.460938 33.277344 42.902344 33.527344 43.195312 L 34.882812 44.773438 C 35.128906 45.0625 35.097656 45.496094 34.808594 45.746094 C 34.519531 45.988281 34.085938 45.960938 33.835938 45.671875 L 32.933594 44.617188 C 32.683594 44.324219 32.242188 44.292969 31.949219 44.542969 C 31.65625 44.792969 31.625 45.234375 31.875 45.523438 L 32.777344 46.578125 C 33.023438 46.867188 32.992188 47.304688 32.699219 47.550781 C 32.5625 47.671875 32.378906 47.726562 32.199219 47.714844 C 32.019531 47.699219 31.851562 47.617188 31.730469 47.476562 L 31.28125 46.949219 C 31.027344 46.65625 30.589844 46.625 30.292969 46.875 C 30.003906 47.121094 29.96875 47.5625 30.21875 47.855469 L 30.671875 48.382812 C 30.789062 48.523438 30.847656 48.699219 30.828125 48.894531 C 30.816406 49.074219 30.734375 49.238281 30.59375 49.355469 C 30.457031 49.476562 30.28125 49.535156 30.097656 49.515625 C 29.910156 49.503906 29.746094 49.417969 29.625 49.28125 L 28.636719 48.132812 C 29.066406 47.390625 29.007812 46.433594 28.421875 45.746094 C 28.070312 45.339844 27.601562 45.109375 27.109375 45.042969 C 27.121094 44.53125 26.957031 44.035156 26.617188 43.640625 C 26.269531 43.234375 25.796875 43.003906 25.304688 42.9375 C 25.316406 42.445312 25.15625 41.941406 24.8125 41.535156 C 24.464844 41.132812 23.992188 40.898438 23.5 40.835938 C 23.511719 40.339844 23.355469 39.835938 23.007812 39.429688 C 22.421875 38.746094 21.488281 38.542969 20.695312 38.84375 L 20.171875 38.214844 L 26.308594 32.953125 L 27.929688 33.378906 L 25.257812 35.667969 C 24.382812 36.417969 24.285156 37.734375 25.03125 38.605469 C 25.445312 39.089844 26.027344 39.335938 26.613281 39.335938 C 27.09375 39.335938 27.578125 39.167969 27.96875 38.832031 L 31.125 36.128906 L 36.988281 42.96875 C 37.105469 43.109375 37.164062 43.28125 37.148438 43.480469 C 37.136719 43.660156 37.050781 43.820312 36.914062 43.941406 Z M 26.316406 47.550781 C 26.066406 47.261719 26.101562 46.824219 26.390625 46.578125 C 26.519531 46.46875 26.679688 46.414062 26.839844 46.414062 C 27.03125 46.414062 27.226562 46.496094 27.363281 46.65625 C 27.609375 46.941406 27.578125 47.378906 27.289062 47.625 C 27 47.871094 26.5625 47.839844 26.316406 47.550781 Z M 24.585938 44.472656 C 24.714844 44.363281 24.875 44.308594 25.03125 44.308594 C 25.226562 44.308594 25.421875 44.390625 25.558594 44.550781 C 25.679688 44.6875 25.734375 44.863281 25.722656 45.050781 C 25.707031 45.234375 25.625 45.402344 25.484375 45.523438 C 25.34375 45.640625 25.160156 45.699219 24.980469 45.683594 C 24.796875 45.671875 24.628906 45.585938 24.507812 45.445312 C 24.265625 45.15625 24.296875 44.722656 24.585938 44.472656 Z M 22.542969 42.839844 C 22.554688 42.65625 22.640625 42.488281 22.78125 42.367188 C 22.910156 42.257812 23.070312 42.203125 23.230469 42.203125 C 23.421875 42.203125 23.617188 42.28125 23.753906 42.441406 C 24 42.734375 23.96875 43.167969 23.675781 43.417969 C 23.535156 43.535156 23.355469 43.589844 23.175781 43.578125 C 22.992188 43.566406 22.828125 43.480469 22.707031 43.339844 C 22.585938 43.199219 22.53125 43.019531 22.542969 42.839844 Z M 20.976562 40.261719 C 21.105469 40.148438 21.265625 40.097656 21.421875 40.097656 C 21.621094 40.097656 21.8125 40.175781 21.949219 40.339844 C 22.195312 40.625 22.160156 41.0625 21.871094 41.308594 C 21.585938 41.554688 21.148438 41.523438 20.902344 41.234375 C 20.65625 40.945312 20.6875 40.511719 20.976562 40.261719 Z M 16.015625 34.472656 L 23.675781 27.90625 L 26.375 31.054688 L 26.375 31.058594 L 18.71875 37.621094 Z M 18.804688 15.355469 L 22.289062 15.355469 C 23.058594 15.355469 23.683594 14.726562 23.683594 13.960938 L 23.683594 10.472656 L 41.117188 10.472656 L 41.117188 30.730469 L 37.914062 26.996094 C 37.414062 26.414062 36.53125 26.347656 35.949219 26.84375 L 32.796875 29.550781 C 32.28125 29.992188 32.167969 30.734375 32.496094 31.304688 L 30.863281 31.414062 C 30.417969 31.441406 29.984375 31.621094 29.644531 31.910156 L 29.214844 32.277344 L 27.527344 31.832031 C 27.660156 31.632812 27.746094 31.410156 27.765625 31.164062 C 27.796875 30.792969 27.675781 30.433594 27.433594 30.148438 L 24.738281 26.996094 C 24.238281 26.414062 23.355469 26.347656 22.773438 26.84375 L 18.804688 30.246094 Z M 22.289062 11.460938 L 22.289062 13.960938 L 19.789062 13.960938 Z M 43.90625 36.125 L 40.75 38.820312 L 33.703125 30.609375 L 36.855469 27.90625 Z M 32.183594 35.21875 C 32.472656 34.96875 32.507812 34.535156 32.253906 34.238281 C 32.003906 33.949219 31.5625 33.914062 31.273438 34.167969 L 30.746094 34.617188 C 30.746094 34.617188 30.746094 34.617188 30.742188 34.617188 L 27.0625 37.773438 C 26.773438 38.023438 26.335938 37.988281 26.089844 37.699219 C 25.839844 37.414062 25.875 36.976562 26.164062 36.730469 L 30.550781 32.96875 C 30.664062 32.871094 30.804688 32.8125 30.953125 32.804688 L 33.601562 32.632812 L 39.242188 39.207031 L 37.140625 41.003906 Z M 40.296875 40.136719 C 40.410156 40.175781 40.523438 40.203125 40.644531 40.214844 C 40.683594 40.214844 40.71875 40.21875 40.757812 40.21875 C 41.089844 40.21875 41.40625 40.101562 41.660156 39.882812 L 44.8125 37.183594 C 45.394531 36.6875 45.460938 35.804688 44.964844 35.21875 L 42.511719 32.359375 L 42.511719 10.472656 C 42.511719 9.703125 41.882812 9.078125 41.117188 9.078125 L 23.277344 9.078125 C 22.90625 9.078125 22.546875 9.226562 22.289062 9.488281 L 17.816406 13.960938 C 17.558594 14.21875 17.410156 14.578125 17.410156 14.945312 L 17.410156 31.441406 L 15.105469 33.414062 C 14.523438 33.914062 14.457031 34.796875 14.953125 35.382812 L 17.660156 38.53125 C 17.9375 38.855469 18.328125 39.015625 18.722656 39.015625 C 18.8125 39.015625 18.90625 39.007812 19 38.988281 L 19.628906 39.746094 C 19.199219 40.488281 19.253906 41.453125 19.84375 42.140625 C 20.191406 42.546875 20.660156 42.777344 21.152344 42.839844 C 21.140625 43.355469 21.308594 43.851562 21.648438 44.246094 C 21.984375 44.640625 22.449219 44.882812 22.960938 44.949219 C 22.949219 45.445312 23.105469 45.945312 23.453125 46.351562 C 23.789062 46.746094 24.253906 46.988281 24.761719 47.054688 C 24.75 47.550781 24.910156 48.050781 25.257812 48.457031 C 25.667969 48.941406 26.253906 49.183594 26.839844 49.183594 C 27.09375 49.183594 27.34375 49.136719 27.585938 49.046875 L 28.566406 50.1875 C 28.925781 50.609375 29.429688 50.867188 29.988281 50.910156 C 30.042969 50.910156 30.097656 50.914062 30.152344 50.914062 C 30.648438 50.914062 31.121094 50.738281 31.503906 50.414062 C 31.902344 50.074219 32.152344 49.605469 32.210938 49.113281 C 32.738281 49.113281 33.21875 48.945312 33.609375 48.609375 C 34.011719 48.265625 34.253906 47.796875 34.316406 47.304688 C 34.820312 47.316406 35.3125 47.148438 35.714844 46.804688 C 36.117188 46.457031 36.359375 45.988281 36.421875 45.5 C 36.890625 45.503906 37.417969 45.34375 37.820312 45 C 38.246094 44.628906 38.503906 44.125 38.535156 43.585938 C 38.585938 43.03125 38.414062 42.492188 38.050781 42.066406 L 40.296875 40.136719 " fill-opacity="1" fill-rule="nonzero"/></g><path fill="#ffca00" d="M 21.796875 20.03125 C 21.925781 20.160156 22.105469 20.234375 22.289062 20.234375 C 22.304688 20.234375 22.324219 20.234375 22.339844 20.230469 C 22.539062 20.21875 22.726562 20.117188 22.847656 19.953125 L 24.941406 17.164062 C 25.171875 16.855469 25.109375 16.421875 24.796875 16.191406 C 24.492188 15.957031 24.054688 16.019531 23.824219 16.332031 L 22.214844 18.476562 L 22.085938 18.347656 C 21.8125 18.074219 21.371094 18.074219 21.097656 18.347656 C 20.828125 18.621094 20.828125 19.0625 21.097656 19.332031 L 21.796875 20.03125 " fill-opacity="1" fill-rule="nonzero"/><path fill="#ffca00" d="M 31.355469 17.445312 L 38.328125 17.445312 C 38.710938 17.445312 39.023438 17.132812 39.023438 16.75 C 39.023438 16.363281 38.710938 16.050781 38.328125 16.050781 L 31.355469 16.050781 C 30.96875 16.050781 30.65625 16.363281 30.65625 16.75 C 30.65625 17.132812 30.96875 17.445312 31.355469 17.445312 " fill-opacity="1" fill-rule="nonzero"/><path fill="#ffca00" d="M 27.867188 17.445312 L 28.566406 17.445312 C 28.949219 17.445312 29.261719 17.132812 29.261719 16.75 C 29.261719 16.363281 28.949219 16.050781 28.566406 16.050781 L 27.867188 16.050781 C 27.484375 16.050781 27.171875 16.363281 27.171875 16.75 C 27.171875 17.132812 27.484375 17.445312 27.867188 17.445312 " fill-opacity="1" fill-rule="nonzero"/><path fill="#ffca00" d="M 27.867188 20.234375 L 32.75 20.234375 C 33.132812 20.234375 33.445312 19.921875 33.445312 19.539062 C 33.445312 19.152344 33.132812 18.839844 32.75 18.839844 L 27.867188 18.839844 C 27.484375 18.839844 27.171875 19.152344 27.171875 19.539062 C 27.171875 19.921875 27.484375 20.234375 27.867188 20.234375 " fill-opacity="1" fill-rule="nonzero"/><path fill="#ffca00" d="M 24.941406 22.742188 C 25.171875 22.433594 25.109375 22 24.796875 21.769531 C 24.492188 21.535156 24.054688 21.597656 23.824219 21.910156 L 22.214844 24.054688 L 22.085938 23.925781 C 21.8125 23.652344 21.371094 23.652344 21.097656 23.925781 C 20.828125 24.199219 20.828125 24.640625 21.097656 24.910156 L 21.796875 25.609375 C 21.925781 25.738281 22.105469 25.8125 22.289062 25.8125 C 22.304688 25.8125 22.324219 25.8125 22.339844 25.808594 C 22.539062 25.796875 22.726562 25.695312 22.847656 25.53125 L 24.941406 22.742188 " fill-opacity="1" fill-rule="nonzero"/><path fill="#ffca00" d="M 38.328125 21.628906 L 31.355469 21.628906 C 30.96875 21.628906 30.65625 21.941406 30.65625 22.328125 C 30.65625 22.710938 30.96875 23.023438 31.355469 23.023438 L 38.328125 23.023438 C 38.710938 23.023438 39.023438 22.710938 39.023438 22.328125 C 39.023438 21.941406 38.710938 21.628906 38.328125 21.628906 " fill-opacity="1" fill-rule="nonzero"/><path fill="#ffca00" d="M 27.867188 23.023438 L 28.566406 23.023438 C 28.949219 23.023438 29.261719 22.710938 29.261719 22.328125 C 29.261719 21.941406 28.949219 21.628906 28.566406 21.628906 L 27.867188 21.628906 C 27.484375 21.628906 27.171875 21.941406 27.171875 22.328125 C 27.171875 22.710938 27.484375 23.023438 27.867188 23.023438 " fill-opacity="1" fill-rule="nonzero"/><path fill="#ffca00" d="M 27.867188 25.8125 L 32.75 25.8125 C 33.132812 25.8125 33.445312 25.5 33.445312 25.117188 C 33.445312 24.730469 33.132812 24.417969 32.75 24.417969 L 27.867188 24.417969 C 27.484375 24.417969 27.171875 24.730469 27.171875 25.117188 C 27.171875 25.5 27.484375 25.8125 27.867188 25.8125 " fill-opacity="1" fill-rule="nonzero"/></svg>