<svg xmlns="http://www.w3.org/2000/svg" xmlns:xlink="http://www.w3.org/1999/xlink" width="80" zoomAndPan="magnify" viewBox="0 0 60 60" height="80" preserveAspectRatio="xMidYMid meet" version="1.0"><defs><clipPath id="b887798c2a"><path d="M 30 0 C 13.429688 0 0 13.429688 0 30 C 0 46.570312 13.429688 60 30 60 C 46.570312 60 60 46.570312 60 30 C 60 13.429688 46.570312 0 30 0 Z M 30 0 " clip-rule="nonzero"/></clipPath><clipPath id="d79be63d43"><path d="M 13.15625 10.300781 L 46.90625 10.300781 L 46.90625 50 L 13.15625 50 Z M 13.15625 10.300781 " clip-rule="nonzero"/></clipPath></defs><rect x="-6" width="72" fill="#ffffff" y="-6" height="72" fill-opacity="1"/><rect x="-6" width="72" fill="#ffffff" y="-6" height="72" fill-opacity="1"/><g clip-path="url(#b887798c2a)"><rect x="-6" width="72" fill="#ffe890" y="-6" height="72" fill-opacity="1"/></g><g clip-path="url(#d79be63d43)"><path fill="#ffca00" d="M 35.402344 46.402344 L 35.402344 49.054688 C 35.402344 49.40625 35.117188 49.6875 34.765625 49.6875 L 13.792969 49.6875 C 13.441406 49.6875 13.15625 49.40625 13.15625 49.054688 L 13.15625 21.871094 C 13.15625 21.519531 13.441406 21.234375 13.792969 21.234375 L 16.449219 21.234375 L 16.449219 18.578125 C 16.449219 18.226562 16.730469 17.945312 17.082031 17.945312 L 28.3125 17.945312 C 28.5 17.308594 28.757812 16.703125 29.082031 16.125 L 28.53125 14.886719 C 28.425781 14.644531 28.476562 14.363281 28.664062 14.179688 L 30.476562 12.363281 C 30.660156 12.179688 30.941406 12.128906 31.183594 12.234375 C 31.183594 12.234375 32.421875 12.785156 32.421875 12.785156 C 33.035156 12.441406 33.683594 12.171875 34.359375 11.984375 L 34.847656 10.714844 C 34.941406 10.46875 35.175781 10.308594 35.441406 10.308594 L 38.003906 10.308594 C 38.269531 10.308594 38.503906 10.472656 38.597656 10.714844 C 38.597656 10.714844 39.085938 11.984375 39.085938 11.984375 C 39.757812 12.171875 40.40625 12.441406 41.019531 12.785156 L 42.257812 12.234375 C 42.5 12.128906 42.78125 12.179688 42.964844 12.363281 L 44.78125 14.179688 C 44.964844 14.363281 45.015625 14.644531 44.910156 14.882812 C 44.910156 14.882812 44.359375 16.125 44.359375 16.125 C 44.707031 16.738281 44.976562 17.386719 45.164062 18.0625 L 46.429688 18.550781 C 46.671875 18.644531 46.835938 18.878906 46.835938 19.140625 L 46.835938 21.707031 C 46.835938 21.96875 46.671875 22.207031 46.429688 22.300781 C 46.429688 22.300781 45.164062 22.785156 45.164062 22.785156 C 44.972656 23.460938 44.703125 24.109375 44.359375 24.71875 L 44.910156 25.960938 C 45.015625 26.203125 44.964844 26.484375 44.78125 26.667969 L 42.964844 28.480469 C 42.78125 28.667969 42.5 28.71875 42.261719 28.613281 C 42.261719 28.613281 41.019531 28.0625 41.019531 28.0625 C 40.410156 28.410156 39.757812 28.675781 39.085938 28.867188 L 38.691406 29.882812 L 38.691406 45.765625 C 38.691406 46.117188 38.410156 46.402344 38.058594 46.402344 Z M 17.71875 21.234375 L 31.371094 21.234375 C 31.539062 21.234375 31.699219 21.300781 31.820312 21.421875 L 35.214844 24.820312 C 35.335938 24.9375 35.402344 25.097656 35.402344 25.265625 L 35.402344 45.132812 L 37.421875 45.132812 L 37.421875 22.613281 L 34.660156 22.613281 C 34.308594 22.613281 34.023438 22.332031 34.023438 21.980469 L 34.023438 19.214844 L 17.71875 19.214844 Z M 29.648438 17.945312 L 32.253906 17.945312 C 33.125 16.375 34.796875 15.316406 36.722656 15.316406 C 39.542969 15.316406 41.832031 17.601562 41.832031 20.421875 C 41.832031 22.546875 40.535156 24.367188 38.691406 25.140625 L 38.691406 27.65625 C 39.378906 27.46875 40.039062 27.183594 40.644531 26.808594 C 40.820312 26.699219 41.042969 26.683594 41.234375 26.769531 L 42.375 27.277344 L 43.574219 26.078125 L 43.066406 24.9375 C 42.984375 24.746094 42.996094 24.527344 43.105469 24.347656 C 43.519531 23.671875 43.828125 22.9375 44.011719 22.164062 C 44.058594 21.960938 44.207031 21.792969 44.402344 21.71875 L 45.566406 21.269531 C 45.566406 21.269531 45.566406 19.578125 45.566406 19.578125 L 44.402344 19.128906 C 44.207031 19.054688 44.058594 18.886719 44.011719 18.683594 C 43.828125 17.910156 43.523438 17.175781 43.109375 16.5 C 42.996094 16.320312 42.984375 16.101562 43.066406 15.910156 L 43.574219 14.769531 L 42.375 13.570312 L 41.234375 14.078125 C 41.042969 14.164062 40.824219 14.148438 40.644531 14.039062 C 39.96875 13.621094 39.234375 13.320312 38.460938 13.136719 C 38.257812 13.085938 38.089844 12.941406 38.015625 12.746094 L 37.566406 11.578125 L 35.875 11.578125 L 35.425781 12.746094 C 35.351562 12.941406 35.183594 13.085938 34.980469 13.136719 C 34.207031 13.320312 33.472656 13.621094 32.796875 14.039062 C 32.617188 14.148438 32.398438 14.164062 32.207031 14.078125 L 31.066406 13.570312 L 29.871094 14.769531 L 30.375 15.910156 C 30.460938 16.101562 30.445312 16.320312 30.335938 16.5 C 30.054688 16.957031 29.824219 17.441406 29.648438 17.945312 Z M 33.234375 24.632812 L 32.003906 23.402344 L 32.003906 24.632812 Z M 33.789062 17.945312 L 34.660156 17.945312 C 34.828125 17.945312 34.992188 18.011719 35.109375 18.128906 L 38.507812 21.53125 C 38.625 21.648438 38.691406 21.8125 38.691406 21.980469 L 38.691406 23.71875 C 39.8125 23.050781 40.5625 21.824219 40.5625 20.421875 C 40.5625 18.300781 38.84375 16.585938 36.722656 16.585938 C 35.546875 16.585938 34.492188 17.113281 33.789062 17.945312 Z M 36.523438 21.34375 L 35.296875 20.113281 L 35.296875 21.34375 Z M 30.734375 22.503906 L 14.425781 22.503906 L 14.425781 48.417969 L 34.132812 48.417969 L 34.132812 25.902344 L 31.371094 25.902344 C 31.019531 25.902344 30.734375 25.617188 30.734375 25.265625 Z M 24.28125 43.617188 C 19.789062 43.617188 16.125 39.953125 16.125 35.464844 C 16.125 30.972656 19.789062 27.308594 24.28125 27.308594 C 28.773438 27.308594 32.433594 30.972656 32.433594 35.464844 C 32.433594 39.953125 28.773438 43.617188 24.28125 43.617188 Z M 24.28125 42.347656 C 28.074219 42.347656 31.164062 39.253906 31.164062 35.464844 C 31.164062 31.671875 28.074219 28.578125 24.28125 28.578125 C 20.488281 28.578125 17.394531 31.671875 17.394531 35.464844 C 17.394531 39.253906 20.488281 42.347656 24.28125 42.347656 Z M 23.292969 35.222656 L 26.496094 31.984375 L 26.5 31.984375 C 27.179688 31.300781 28.289062 31.296875 28.972656 31.976562 C 29.65625 32.65625 29.660156 33.761719 28.980469 34.449219 C 27.496094 35.945312 26.023438 37.453125 24.53125 38.941406 C 23.851562 39.625 22.742188 39.625 22.058594 38.941406 L 19.585938 36.472656 C 18.90625 35.789062 18.902344 34.683594 19.585938 33.996094 C 20.269531 33.3125 21.378906 33.3125 22.0625 33.996094 Z M 22.84375 36.574219 L 21.164062 34.894531 C 20.976562 34.707031 20.671875 34.707031 20.484375 34.894531 C 20.296875 35.082031 20.296875 35.386719 20.484375 35.574219 L 22.957031 38.046875 C 23.144531 38.230469 23.445312 38.230469 23.632812 38.046875 C 25.125 36.554688 26.59375 35.050781 28.078125 33.554688 C 28.261719 33.367188 28.261719 33.0625 28.074219 32.878906 C 27.890625 32.691406 27.585938 32.691406 27.398438 32.878906 L 23.746094 36.570312 C 23.625 36.691406 23.464844 36.757812 23.296875 36.761719 C 23.125 36.761719 22.964844 36.695312 22.84375 36.574219 Z M 22.84375 36.574219 " fill-opacity="1" fill-rule="evenodd"/></g></svg>