<svg xmlns="http://www.w3.org/2000/svg" xmlns:xlink="http://www.w3.org/1999/xlink" width="80" zoomAndPan="magnify" viewBox="0 0 60 60" height="80" preserveAspectRatio="xMidYMid meet" version="1.0"><defs><clipPath id="cdaf392442"><path d="M 30 0 C 13.429688 0 0 13.429688 0 30 C 0 46.570312 13.429688 60 30 60 C 46.570312 60 60 46.570312 60 30 C 60 13.429688 46.570312 0 30 0 Z M 30 0 " clip-rule="nonzero"/></clipPath><clipPath id="9eb4aaa241"><path d="M 37 34 L 50.996094 34 L 50.996094 47 L 37 47 Z M 37 34 " clip-rule="nonzero"/></clipPath><clipPath id="df2c92ad6d"><path d="M 22 37 L 38 37 L 38 48.804688 L 22 48.804688 Z M 22 37 " clip-rule="nonzero"/></clipPath><clipPath id="a9e0744709"><path d="M 19 11.304688 L 41 11.304688 L 41 21 L 19 21 Z M 19 11.304688 " clip-rule="nonzero"/></clipPath></defs><rect x="-6" width="72" fill="#ffffff" y="-6" height="72" fill-opacity="1"/><rect x="-6" width="72" fill="#ffffff" y="-6" height="72" fill-opacity="1"/><g clip-path="url(#cdaf392442)"><rect x="-6" width="72" fill="#ffe890" y="-6" height="72" fill-opacity="1"/></g><path fill="#ffca00" d="M 16.949219 33.421875 C 19.796875 33.421875 22.101562 31.113281 22.101562 28.269531 C 22.101562 25.421875 19.796875 23.117188 16.949219 23.117188 C 14.105469 23.117188 11.796875 25.425781 11.796875 28.269531 C 11.796875 31.117188 14.101562 33.421875 16.949219 33.421875 Z M 16.949219 33.421875 " fill-opacity="1" fill-rule="nonzero"/><path fill="#ffca00" d="M 22.699219 36.398438 C 21.695312 35.410156 20.347656 34.828125 18.867188 34.828125 L 15.035156 34.828125 C 12.269531 34.828125 9.929688 36.890625 9.59375 39.660156 L 9.0625 44.113281 C 8.996094 44.6875 9.363281 45.230469 9.929688 45.363281 C 12.152344 45.84375 14.503906 46.074219 16.945312 46.074219 C 17.699219 46.074219 18.453125 46.0625 19.179688 45.996094 L 19.6875 41.890625 C 19.957031 39.671875 21.070312 37.734375 22.699219 36.398438 Z M 22.699219 36.398438 " fill-opacity="1" fill-rule="nonzero"/><path fill="#ffca00" d="M 37.890625 28.269531 C 37.890625 31.113281 40.195312 33.421875 43.042969 33.421875 C 45.890625 33.421875 48.195312 31.113281 48.195312 28.269531 C 48.195312 25.421875 45.890625 23.117188 43.042969 23.117188 C 40.195312 23.117188 37.890625 25.421875 37.890625 28.269531 Z M 37.890625 28.269531 " fill-opacity="1" fill-rule="nonzero"/><g clip-path="url(#9eb4aaa241)"><path fill="#ffca00" d="M 50.394531 39.65625 C 50.070312 36.890625 47.71875 34.824219 44.96875 34.824219 L 41.125 34.824219 C 39.644531 34.824219 38.292969 35.410156 37.308594 36.394531 C 38.929688 37.730469 40.050781 39.664062 40.304688 41.886719 L 40.8125 45.992188 C 41.539062 46.058594 42.292969 46.070312 43.046875 46.070312 C 45.488281 46.070312 47.839844 45.835938 50.0625 45.355469 C 50.632812 45.230469 50.996094 44.683594 50.929688 44.109375 Z M 50.394531 39.65625 " fill-opacity="1" fill-rule="nonzero"/></g><g clip-path="url(#df2c92ad6d)"><path fill="#ffca00" d="M 31.90625 37.429688 L 28.082031 37.429688 C 25.3125 37.429688 22.980469 39.503906 22.644531 42.253906 L 22.105469 46.710938 C 22.035156 47.289062 22.410156 47.835938 22.980469 47.957031 C 25.191406 48.429688 27.546875 48.679688 29.992188 48.679688 C 32.441406 48.679688 34.792969 48.429688 37.003906 47.957031 C 37.570312 47.835938 37.945312 47.289062 37.875 46.710938 L 37.339844 42.253906 C 37.015625 39.496094 34.679688 37.429688 31.90625 37.429688 Z M 31.90625 37.429688 " fill-opacity="1" fill-rule="nonzero"/></g><path fill="#ffca00" d="M 24.84375 30.871094 C 24.84375 33.71875 27.148438 36.023438 29.996094 36.023438 C 32.847656 36.023438 35.152344 33.714844 35.152344 30.871094 C 35.152344 28.027344 32.839844 25.71875 29.996094 25.71875 C 27.148438 25.71875 24.84375 28.023438 24.84375 30.871094 Z M 24.84375 30.871094 " fill-opacity="1" fill-rule="nonzero"/><path fill="#ffca00" d="M 36.585938 21.367188 L 36.585938 18.0625 L 31.648438 19.53125 C 31.089844 19.695312 30.523438 19.777344 29.941406 19.777344 C 29.367188 19.777344 28.789062 19.695312 28.234375 19.53125 L 23.441406 18.109375 L 23.441406 21.367188 C 23.441406 21.964844 23.832031 22.480469 24.394531 22.652344 L 26.488281 23.269531 C 28.785156 23.949219 31.238281 23.949219 33.527344 23.269531 L 35.613281 22.652344 C 36.195312 22.480469 36.585938 21.964844 36.585938 21.367188 Z M 36.585938 21.367188 " fill-opacity="1" fill-rule="nonzero"/><g clip-path="url(#a9e0744709)"><path fill="#ffca00" d="M 20.242188 15.234375 L 28.652344 17.734375 C 29.496094 17.984375 30.390625 17.984375 31.230469 17.734375 L 38.441406 15.589844 L 38.441406 17.492188 C 38.292969 17.574219 38.195312 17.722656 38.195312 17.902344 L 38.195312 18.425781 C 38.195312 18.613281 38.308594 18.777344 38.472656 18.851562 L 38.015625 19.90625 C 37.957031 20.042969 38.046875 20.203125 38.199219 20.21875 L 38.65625 20.273438 C 38.75 20.28125 38.847656 20.28125 38.9375 20.273438 L 39.398438 20.21875 C 39.546875 20.203125 39.640625 20.042969 39.578125 19.90625 L 39.125 18.851562 C 39.285156 18.777344 39.402344 18.613281 39.402344 18.425781 L 39.402344 17.902344 C 39.402344 17.722656 39.300781 17.574219 39.15625 17.492188 L 39.15625 15.375 L 39.636719 15.234375 C 40.21875 15.0625 40.21875 14.238281 39.636719 14.066406 L 31.238281 11.566406 C 30.394531 11.3125 29.5 11.3125 28.65625 11.566406 L 20.246094 14.066406 C 19.660156 14.238281 19.660156 15.0625 20.242188 15.234375 Z M 20.242188 15.234375 " fill-opacity="1" fill-rule="nonzero"/></g></svg>