<svg xmlns="http://www.w3.org/2000/svg" xmlns:xlink="http://www.w3.org/1999/xlink" width="80" zoomAndPan="magnify" viewBox="0 0 60 60" height="80" preserveAspectRatio="xMidYMid meet" version="1.0"><defs><clipPath id="ac5ad21aa1"><path d="M 30 0 C 13.429688 0 0 13.429688 0 30 C 0 46.570312 13.429688 60 30 60 C 46.570312 60 60 46.570312 60 30 C 60 13.429688 46.570312 0 30 0 Z M 30 0 " clip-rule="nonzero"/></clipPath><clipPath id="07bf46c5e3"><path d="M 10.914062 32 L 28 32 L 28 51.542969 L 10.914062 51.542969 Z M 10.914062 32 " clip-rule="nonzero"/></clipPath><clipPath id="9a9ad0f337"><path d="M 32 32 L 49.164062 32 L 49.164062 51.542969 L 32 51.542969 Z M 32 32 " clip-rule="nonzero"/></clipPath><clipPath id="35e3de7b30"><path d="M 15 8.792969 L 46 8.792969 L 46 39 L 15 39 Z M 15 8.792969 " clip-rule="nonzero"/></clipPath></defs><rect x="-6" width="72" fill="#ffffff" y="-6" height="72" fill-opacity="1"/><rect x="-6" width="72" fill="#ffffff" y="-6" height="72" fill-opacity="1"/><g clip-path="url(#ac5ad21aa1)"><rect x="-6" width="72" fill="#ffe890" y="-6" height="72" fill-opacity="1"/></g><g clip-path="url(#07bf46c5e3)"><path fill="#ffca00" d="M 27.433594 39.730469 L 25.316406 37.824219 L 22.351562 38.246094 C 20.445312 38.457031 18.539062 37.1875 18.117188 35.28125 L 17.691406 32.527344 L 17.480469 32.527344 L 10.914062 45.660156 L 18.539062 44.601562 L 22.351562 51.375 L 27.855469 40.152344 C 27.644531 39.941406 27.644531 39.941406 27.433594 39.730469 Z M 27.433594 39.730469 " fill-opacity="1" fill-rule="nonzero"/></g><g clip-path="url(#9a9ad0f337)"><path fill="#ffca00" d="M 42.46875 32.527344 L 41.835938 35.28125 C 41.410156 36.976562 39.929688 38.246094 38.234375 38.246094 C 38.023438 38.246094 37.8125 38.246094 37.8125 38.246094 L 34.847656 37.824219 L 32.726562 39.730469 C 32.515625 39.941406 32.515625 39.941406 32.304688 40.152344 L 37.8125 51.375 L 41.621094 44.8125 L 49.246094 45.871094 Z M 42.46875 32.527344 " fill-opacity="1" fill-rule="nonzero"/></g><g clip-path="url(#35e3de7b30)"><path fill="#ffca00" d="M 43.953125 18.339844 L 40.351562 16.644531 L 39.71875 12.832031 C 39.503906 11.984375 38.65625 11.351562 37.8125 11.5625 L 33.785156 12.199219 L 30.820312 9.445312 C 30.1875 8.808594 29.128906 8.808594 28.492188 9.445312 L 25.527344 12.199219 L 22.140625 11.5625 C 21.082031 11.351562 20.445312 11.984375 20.234375 12.832031 L 19.597656 16.644531 L 15.996094 18.339844 C 15.152344 18.761719 14.9375 19.609375 15.363281 20.457031 L 17.054688 23.84375 L 15.363281 27.234375 C 14.9375 28.082031 15.363281 28.929688 15.996094 29.351562 L 19.597656 31.046875 L 20.234375 34.859375 C 20.445312 35.707031 21.292969 36.339844 22.140625 36.128906 L 26.164062 35.492188 L 29.128906 38.246094 C 29.761719 38.882812 30.820312 38.882812 31.457031 38.246094 L 34.421875 35.492188 L 38.445312 36.128906 C 39.292969 36.339844 40.140625 35.707031 40.351562 34.859375 L 40.988281 31.046875 L 44.585938 29.351562 C 45.433594 28.929688 45.648438 28.082031 45.222656 27.234375 L 42.894531 23.84375 L 44.585938 20.457031 C 45.011719 19.609375 44.800781 18.761719 43.953125 18.339844 Z M 43.953125 18.339844 " fill-opacity="1" fill-rule="nonzero"/></g></svg>