<svg width="48" height="48" viewBox="0 0 48 48" fill="none" xmlns="http://www.w3.org/2000/svg">
<g id="expand_circle_right">
<mask id="mask0_98_793" style="mask-type:alpha" maskUnits="userSpaceOnUse" x="0" y="0" width="48" height="48">
<rect id="Bounding box" width="48" height="48" transform="matrix(-1 0 0 1 48 0)" fill="#D9D9D9"/>
</mask>
<g mask="url(#mask0_98_793)">
<path id="expand_circle_right_2" d="M20.8384 24L27.1461 30.3077L26.0846 31.4193L18.6654 24L26.0846 16.5807L27.1461 17.6923L20.8384 24ZM23.9933 42C26.4824 42 28.8226 41.5277 31.0138 40.583C33.205 39.6384 35.1111 38.348 36.7321 36.712C38.353 35.0759 39.6362 33.1697 40.5817 30.9933C41.5272 28.8169 42 26.4881 42 24.0067C42 21.5176 41.5277 19.1774 40.583 16.9862C39.6384 14.795 38.3563 12.8889 36.7369 11.268C35.1175 9.64705 33.2133 8.36383 31.0241 7.4183C28.8349 6.47277 26.4958 6 24.0067 6C21.5176 6 19.1858 6.47232 17.0112 7.41695C14.8366 8.36162 12.9305 9.64365 11.2929 11.263C9.65538 12.8824 8.36383 14.7867 7.4183 16.9759C6.47277 19.1651 6 21.5042 6 23.9933C6 26.4747 6.47232 28.8046 7.41695 30.983C8.36162 33.1614 9.65198 35.0695 11.288 36.7071C12.9241 38.3446 14.8284 39.6362 17.0009 40.5817C19.1734 41.5272 21.5042 42 23.9933 42ZM24 40.4616C19.4282 40.4616 15.5417 38.8609 12.3404 35.6596C9.1391 32.4583 7.53845 28.5718 7.53845 24C7.53845 19.4205 9.1391 15.532 12.3404 12.3346C15.5417 9.13717 19.4282 7.53845 24 7.53845C28.5795 7.53845 32.468 9.13717 35.6654 12.3346C38.8628 15.532 40.4616 19.4205 40.4616 24C40.4616 28.5718 38.8628 32.4583 35.6654 35.6596C32.468 38.8609 28.5795 40.4616 24 40.4616Z" fill="#606060"/>
</g>
</g>
</svg>
