<svg width="48" height="48" viewBox="0 0 48 48" fill="none" xmlns="http://www.w3.org/2000/svg">
<g id="expand_circle_right">
<mask id="mask0_98_792" style="mask-type:alpha" maskUnits="userSpaceOnUse" x="0" y="0" width="48" height="48">
<rect id="Bounding box" width="48" height="48" fill="#D9D9D9"/>
</mask>
<g mask="url(#mask0_98_792)">
<path id="expand_circle_right_2" d="M27.1616 24L20.8539 30.3077L21.9154 31.4193L29.3346 24L21.9154 16.5807L20.8539 17.6923L27.1616 24ZM24.0067 42C21.5176 42 19.1774 41.5277 16.9862 40.583C14.795 39.6384 12.8889 38.348 11.2679 36.712C9.64705 35.0759 8.36383 33.1697 7.4183 30.9933C6.47277 28.8169 6 26.4881 6 24.0067C6 21.5176 6.47232 19.1774 7.41695 16.9862C8.36162 14.795 9.64365 12.8889 11.2631 11.268C12.8825 9.64705 14.7867 8.36383 16.9759 7.4183C19.1651 6.47277 21.5042 6 23.9933 6C26.4824 6 28.8142 6.47232 30.9888 7.41695C33.1634 8.36162 35.0695 9.64365 36.7071 11.263C38.3446 12.8824 39.6362 14.7867 40.5817 16.9759C41.5272 19.1651 42 21.5042 42 23.9933C42 26.4747 41.5277 28.8046 40.583 30.983C39.6384 33.1614 38.348 35.0695 36.712 36.7071C35.0759 38.3446 33.1716 39.6362 30.9991 40.5817C28.8266 41.5272 26.4958 42 24.0067 42ZM24 40.4616C28.5718 40.4616 32.4583 38.8609 35.6596 35.6596C38.8609 32.4583 40.4616 28.5718 40.4616 24C40.4616 19.4205 38.8609 15.532 35.6596 12.3346C32.4583 9.13717 28.5718 7.53845 24 7.53845C19.4205 7.53845 15.532 9.13717 12.3346 12.3346C9.13717 15.532 7.53845 19.4205 7.53845 24C7.53845 28.5718 9.13717 32.4583 12.3346 35.6596C15.532 38.8609 19.4205 40.4616 24 40.4616Z" fill="#606060"/>
</g>
</g>
</svg>
